<?xml version="1.0" encoding="UTF-8"?>
<svg id="Capa_1" data-name="Capa 1" xmlns="http://www.w3.org/2000/svg" xmlns:xlink="http://www.w3.org/1999/xlink" viewBox="0 0 1050 1050">
  <defs>
    <style>
      .cls-1 {
        fill: #01c38e;
      }

      .cls-2, .cls-3 {
        fill: #fff;
      }

      .cls-4, .cls-5, .cls-3, .cls-6, .cls-7 {
        stroke-miterlimit: 10;
      }

      .cls-4, .cls-5, .cls-3, .cls-7 {
        stroke: #3b43f2;
      }

      .cls-4, .cls-6 {
        stroke-width: 5px;
      }

      .cls-4, .cls-6, .cls-7 {
        fill: none;
      }

      .cls-8 {
        fill: url(#Degradado_sin_nombre_29);
      }

      .cls-5 {
        stroke-width: .1px;
      }

      .cls-5, .cls-9 {
        fill: #3b43f2;
      }

      .cls-10 {
        fill-rule: evenodd;
      }

      .cls-10, .cls-11 {
        fill: #223947;
      }

      .cls-12 {
        fill: #38b6ff;
      }

      .cls-3 {
        stroke-width: 3px;
      }

      .cls-6 {
        stroke: #bbb;
      }

      .cls-7 {
        stroke-width: 6px;
      }
    </style>
    <radialGradient id="Degradado_sin_nombre_29" data-name="Degradado sin nombre 29" cx="525" cy="525" fx="525" fy="525" r="525" gradientUnits="userSpaceOnUse">
      <stop offset=".73" stop-color="#fff"/>
      <stop offset="1" stop-color="#f2f2f2"/>
    </radialGradient>
  </defs>
  <circle class="cls-8" cx="525" cy="525" r="525"/>
  <circle class="cls-4" cx="518" cy="525" r="129"/>
  <circle class="cls-6" cx="518" cy="525" r="194"/>
  <circle class="cls-4" cx="518" cy="525" r="259"/>
  <circle class="cls-6" cx="518" cy="525" r="329"/>
  <circle class="cls-4" cx="518" cy="525" r="393"/>
  <circle class="cls-3" cx="125.5" cy="525.5" r="75"/>
  <circle class="cls-3" cx="910.5" cy="525.5" r="75"/>
  <circle class="cls-3" cx="517.5" cy="131.5" r="75"/>
  <circle class="cls-3" cx="521.5" cy="914.5" r="75"/>
  <circle class="cls-3" cx="241.5" cy="803.5" r="75"/>
  <circle class="cls-3" cx="796.5" cy="246.5" r="75"/>
  <circle class="cls-3" cx="796.5" cy="803.5" r="75"/>
  <circle class="cls-3" cx="240.5" cy="246.5" r="75"/>
  <g>
    <polygon class="cls-10" points="452.34 538.22 461.08 538.22 487.61 610.1 511.94 610.19 582.16 465.27 561.89 455.3 500.95 580.98 476.93 515.9 452.34 515.98 452.34 538.22"/>
    <polygon class="cls-12" points="452.71 526.91 452.71 547.64 434.76 537.27 416.81 526.91 434.76 516.55 452.71 506.18 452.71 526.91"/>
    <polygon class="cls-12" points="588.34 448.68 589.72 469.36 571.12 460.22 552.52 451.07 569.73 439.54 586.95 428 588.34 448.68"/>
    <polygon class="cls-11" points="542.4 610.19 520.17 610.19 564.63 518.62 586.87 518.24 542.4 610.19"/>
  </g>
  <path class="cls-9" d="m517.5,89l31.95,7.05c1.78.39,3.05,1.96,3.05,3.77v38.59c0,7.75-3.9,14.99-10.39,19.29l-24.61,16.3-24.61-16.3c-6.49-4.3-10.39-11.54-10.39-19.29v-38.59c0-1.81,1.27-3.38,3.05-3.77l31.95-7.05Zm0,7.92l-27.22,6.01v35.49c0,5.17,2.6,9.99,6.93,12.86l20.3,13.44,20.3-13.44c4.33-2.87,6.93-7.69,6.93-12.86v-35.49l-27.22-6.01Zm0,15.27c4.3,0,7.78,3.46,7.78,7.73,0,2.86-1.56,5.35-3.88,6.69v16.49h-7.78v-16.49c-2.32-1.34-3.89-3.83-3.89-6.69,0-4.27,3.48-7.73,7.78-7.73Z"/>
  <path class="cls-1" d="m758.25,211.5h76.5c2.35,0,4.25,1.74,4.25,3.89v62.22c0,2.15-1.9,3.89-4.25,3.89h-76.5c-2.35,0-4.25-1.74-4.25-3.89v-62.22c0-2.15,1.9-3.89,4.25-3.89Zm4.25,7.78v54.44h68v-54.44h-68Zm19.12,35h23.38c1.17,0,2.12-.87,2.12-1.94s-.95-1.94-2.12-1.94h-17c-5.87,0-10.63-4.35-10.63-9.72s4.76-9.72,10.63-9.72h4.25v-7.78h8.5v7.78h10.62v7.78h-23.37c-1.17,0-2.13.87-2.13,1.94s.95,1.94,2.13,1.94h17c5.87,0,10.62,4.35,10.62,9.72s-4.76,9.72-10.62,9.72h-4.25v7.78h-8.5v-7.78h-10.63v-7.78Z"/>
  <path class="cls-5" d="m102.1,546.5c1.44-4.08,5.33-7,9.9-7s8.46,2.92,9.9,7h35.6v7h-35.6c-1.44,4.08-5.33,7-9.9,7s-8.46-2.92-9.9-7h-14.6v-7h14.6Zm21-24.5c1.44-4.08,5.33-7,9.9-7s8.46,2.92,9.9,7h14.6v7h-14.6c-1.44,4.08-5.33,7-9.9,7s-8.46-2.92-9.9-7h-35.6v-7h35.6Zm-21-24.5c1.44-4.08,5.33-7,9.9-7s8.46,2.92,9.9,7h35.6v7h-35.6c-1.44,4.08-5.33,7-9.9,7s-8.46-2.92-9.9-7h-14.6v-7h14.6Zm9.9,7c1.93,0,3.5-1.57,3.5-3.5s-1.57-3.5-3.5-3.5-3.5,1.57-3.5,3.5,1.57,3.5,3.5,3.5Zm21,24.5c1.93,0,3.5-1.57,3.5-3.5s-1.57-3.5-3.5-3.5-3.5,1.57-3.5,3.5,1.57,3.5,3.5,3.5Zm-21,24.5c1.93,0,3.5-1.57,3.5-3.5s-1.57-3.5-3.5-3.5-3.5,1.57-3.5,3.5,1.57,3.5,3.5,3.5Z"/>
  <path class="cls-1" d="m279,796.83v33.33c0,1.84-1.68,3.33-3.75,3.33h-67.5c-2.07,0-3.75-1.49-3.75-3.33v-33.33h75Zm0-6.67h-75v-13.33c0-1.84,1.68-3.33,3.75-3.33h67.5c2.07,0,3.75,1.49,3.75,3.33v13.33Zm-26.25,26.67v6.67h15v-6.67h-15Z"/>
  <rect class="cls-1" x="759" y="774" width="75" height="59" rx="4.15" ry="4.15"/>
  <path class="cls-2" d="m823.24,813.36l-.59-2.94h-6.58l-1.04,2.92h-5.27c3.39-8.13,5.9-14.17,7.55-18.09.43-1.02,1.19-1.55,2.31-1.54.86,0,2.26,0,4.2,0l4.08,19.64h-4.65Zm-5.69-6.97h4.24l-1.58-7.38-2.66,7.38Zm-33.98-12.68h5.3s-8.19,19.65-8.19,19.65h-5.37c-1.81-7.01-3.15-12.2-4-15.59-.26-1.04-.78-1.76-1.78-2.1-.89-.31-2.37-.78-4.44-1.42v-.54c3.87,0,6.7,0,8.47,0,1.47,0,2.32.71,2.6,2.16.28,1.46.97,5.17,2.09,11.13l5.32-13.3Zm12.58,0l-4.19,19.64h-5.05c.1-.48,1.49-7.03,4.18-19.65h5.05Zm10.23-.36c1.51,0,3.41.47,4.51.9l-.89,4.07c-.99-.4-2.61-.93-3.98-.91-1.99.03-3.22.87-3.22,1.67,0,1.3,2.13,1.96,4.33,3.38,2.51,1.62,2.84,3.08,2.81,4.66-.04,3.29-2.81,6.53-8.66,6.53-2.67-.04-3.63-.26-5.81-1.04l.92-4.25c2.22.93,3.16,1.22,5.05,1.22,1.74,0,3.23-.7,3.24-1.92,0-.87-.52-1.3-2.47-2.37-1.95-1.07-4.68-2.56-4.64-5.55.05-3.83,3.67-6.39,8.81-6.39Z"/>
  <path class="cls-9" d="m909.84,512.61l12.25,11.64v-.59c0-6.1-5.19-11.05-11.59-11.05h-.66m-16.61,2.95l5.99,5.71c-.19.77-.31,1.55-.31,2.39,0,6.1,5.19,11.05,11.59,11.05.85,0,1.7-.11,2.51-.29l5.99,5.71c-2.59,1.22-5.45,1.95-8.5,1.95-10.67,0-19.32-8.25-19.32-18.42,0-2.91.77-5.64,2.05-8.11m-21.37-20.37l8.81,8.4,1.74,1.66c-6.38,4.79-11.4,11.05-14.41,18.42,6.68,16.17,23.18,27.63,42.5,27.63,5.99,0,11.71-1.11,16.92-3.09l1.66,1.55,11.28,10.76,4.91-4.68-68.5-65.32m33.73,14.74c10.67,0,19.32,8.25,19.32,18.42,0,2.36-.5,4.64-1.39,6.71l11.32,10.79c5.8-4.61,10.43-10.65,13.25-17.5-6.68-16.17-23.18-27.63-42.5-27.63-5.41,0-10.59.92-15.45,2.58l8.38,7.92c2.2-.81,4.56-1.29,7.07-1.29Z"/>
  <path class="cls-1" d="m272.74,248.59c-2.25-2.55-5.65-4.31-10.19-5.26,5.78-2.59,8.32-6.98,7.63-13.18-.23-2.25-.94-4.2-2.13-5.85-1.19-1.65-2.78-2.98-4.8-3.98-2.02-1.01-4.21-1.77-6.58-2.3-2.37-.53-5.08-.91-8.15-1.15v-12.87h-8.96v12.52c-1.55,0-3.92.03-7.1.1v-12.62h-8.97v12.87c-1.28.03-3.16.05-5.65.05l-12.34-.05v8.38h6.46c2.95,0,4.68,1.16,5.18,3.47v14.66c.39,0,.7.02.93.05h-.93v20.53c-.31,1.74-1.44,2.61-3.38,2.61h-6.46l-1.81,9.35h11.64c.74,0,1.8,0,3.2.02,1.4.02,2.44.03,3.14.03v13.03h8.97v-12.87c1.63.03,4,.05,7.1.05v12.82h8.96v-13.03c3.18-.14,6.01-.39,8.47-.77,2.46-.38,4.82-.96,7.07-1.76,2.25-.8,4.13-1.8,5.65-2.99,1.51-1.19,2.76-2.71,3.76-4.55.99-1.84,1.62-3.97,1.89-6.39.51-4.73-.37-8.38-2.62-10.93Zm-40.11-22.78c.27,0,1.04,0,2.3-.03,1.26-.02,2.31-.03,3.14-.05.83-.02,1.96.03,3.38.13,1.42.1,2.61.24,3.58.41s2.04.45,3.2.84c1.17.39,2.1.87,2.79,1.43.7.56,1.29,1.28,1.78,2.15.49.87.73,1.86.73,2.99,0,.95-.17,1.82-.52,2.61-.35.78-.87,1.44-1.57,1.97-.7.53-1.42.99-2.15,1.38-.74.39-1.68.71-2.82.94-1.14.24-2.14.43-3,.56-.85.14-1.92.23-3.2.28-1.28.05-2.25.09-2.91.1-.66.02-1.56.02-2.71,0-1.15-.02-1.81-.03-2.01-.03v-15.68h0Zm24.48,34.79c-.37.78-.84,1.47-1.43,2.04-.58.58-1.35,1.09-2.3,1.53-.95.44-1.87.8-2.76,1.07-.89.27-1.97.51-3.23.72-1.26.2-2.37.35-3.32.43-.95.09-2.09.15-3.41.2-1.32.05-2.35.08-3.09.08s-1.67,0-2.79-.03c-1.13-.02-1.84-.02-2.15-.02v-17.27c.31,0,1.23-.02,2.77-.05,1.53-.03,2.78-.05,3.76-.05s2.31.05,4.02.15c1.71.1,3.14.25,4.31.46,1.16.2,2.43.52,3.81.95,1.38.43,2.49.94,3.35,1.56.85.61,1.57,1.4,2.15,2.35.58.95.87,2.04.87,3.27,0,.95-.18,1.82-.55,2.61Z"/>
  <g>
    <path class="cls-7" d="m486.44,922.35h11.71c2.81,0,5.1,2.28,5.1,5.1v24.46c0,2.81-2.28,5.1-5.1,5.1h-9.26c-2.81,0-5.1-2.28-5.1-5.1v-26.91c0-1.46,1.19-2.65,2.65-2.65Z"/>
    <rect class="cls-7" x="514.85" y="910.69" width="19.46" height="46.31" rx="5" ry="5"/>
    <rect class="cls-7" x="545.92" y="899.66" width="19.46" height="57.34" rx="5" ry="5"/>
    <polyline class="cls-7" points="480.37 911 512.12 893.99 530.71 899.66 559.91 877.61"/>
    <path class="cls-9" d="m557.71,872h4.91c1.52,0,2.75,1.23,2.75,2.75v11.98c0,2.12-1.72,3.83-3.83,3.83h0c-2.12,0-3.83-1.72-3.83-3.83v-14.74h0Z"/>
    <path class="cls-9" d="m555.79,865.95h0c1.95,0,3.54,1.59,3.54,3.54v11.65c0,2.2-1.78,3.98-3.98,3.98h-1.25c-1.02,0-1.85-.83-1.85-1.85v-13.78c0-1.95,1.59-3.54,3.54-3.54Z" transform="translate(-319.75 1431.33) rotate(-90)"/>
    <path class="cls-9" d="m478.25,913.77l-1.27-3.27c-.24-.62-.07-1.26.38-1.45l2.8-1.18c.47-.2,1.06.17,1.31.81l1.27,3.27c.24.62.07,1.26-.38,1.45l-2.8,1.18c-.47.2-1.06-.17-1.31-.81Z"/>
  </g>
</svg>