<svg xmlns="http://www.w3.org/2000/svg" xmlns:xlink="http://www.w3.org/1999/xlink" width="800" zoomAndPan="magnify" viewBox="0 0 600 599.999999" height="800" preserveAspectRatio="xMidYMid meet" version="1.0"><defs><clipPath id="a052463308"><path d="M 0 0 L 599.695312 0 L 599.695312 599.695312 L 0 599.695312 Z M 0 0 " clip-rule="nonzero"/></clipPath><clipPath id="640ed4460e"><path d="M 299.847656 0 C 134.246094 0 0 134.246094 0 299.847656 C 0 465.449219 134.246094 599.695312 299.847656 599.695312 C 465.449219 599.695312 599.695312 465.449219 599.695312 299.847656 C 599.695312 134.246094 465.449219 0 299.847656 0 Z M 299.847656 0 " clip-rule="nonzero"/></clipPath><clipPath id="966d8ecbc9"><path d="M 105 54 L 496.878906 54 L 496.878906 547 L 105 547 Z M 105 54 " clip-rule="nonzero"/></clipPath></defs><g clip-path="url(#a052463308)"><g clip-path="url(#640ed4460e)"><path fill="#3b43f2" d="M 0 0 L 599.695312 0 L 599.695312 599.695312 L 0 599.695312 Z M 0 0 " fill-opacity="1" fill-rule="nonzero"/></g></g><g clip-path="url(#966d8ecbc9)"><path fill="#ffffff" d="M 493.074219 367.277344 C 491.195312 352.429688 476.960938 341.148438 464.820312 336.027344 C 464.859375 336.65625 464.894531 337.289062 464.933594 337.917969 C 468.003906 335.722656 471.070312 333.515625 474.132812 331.296875 C 477.230469 329.054688 481.691406 326.792969 483.96875 323.621094 C 488.378906 317.480469 482.105469 313.730469 478.417969 309.84375 C 470.753906 301.785156 462.539062 289.941406 462.539062 278.3125 C 462.539062 275.40625 462.941406 272.804688 464.15625 270.15625 C 465.207031 267.859375 467.304688 266.367188 468.652344 264.257812 C 469.382812 263.109375 470.21875 261.828125 470.03125 260.386719 C 469.632812 257.328125 471.199219 255.449219 472.46875 252.707031 C 475.714844 245.71875 477.589844 238.199219 469.796875 234.457031 C 460.90625 230.1875 454.402344 239.734375 447.382812 243.21875 C 437.867188 247.9375 425.191406 249.066406 415.789062 243.78125 C 411.171875 241.191406 407.855469 234.828125 404.355469 231.003906 C 399.496094 225.699219 393.675781 221.214844 387.527344 217.523438 C 383.113281 214.875 378.214844 212.984375 373.042969 212.984375 C 369.921875 212.984375 366.652344 213.847656 363.496094 214.015625 C 351.054688 214.679688 338.441406 213.914062 326.027344 213.171875 C 326.425781 213.527344 326.816406 213.882812 327.210938 214.238281 C 327.292969 210.570312 327.269531 208.136719 325.496094 206.421875 C 323.785156 204.75 321.140625 204.304688 318.730469 202.273438 C 316.863281 200.699219 315.261719 197.976562 314.527344 195.679688 C 312.382812 188.972656 324.757812 185.542969 321.886719 178.296875 C 320.148438 173.90625 311.371094 173.621094 308.167969 170.289062 C 305.238281 167.242188 305.648438 163.039062 305.507812 159.121094 C 305.316406 153.710938 303.449219 146.132812 296.304688 150.3125 C 291.164062 153.328125 289.683594 150.039062 289.234375 145.382812 C 289.226562 145.273438 288.695312 146.148438 289.730469 145.058594 C 291.859375 142.828125 293.75 140.398438 295.5625 137.90625 C 297.222656 135.609375 301.21875 130.472656 301.21875 127.230469 C 301.21875 123.304688 303.058594 117.921875 304.671875 114.332031 C 306.695312 109.84375 309.4375 105.699219 312.351562 101.75 C 313.003906 100.863281 313.691406 99.992188 314.382812 99.136719 C 314.78125 98.640625 315.027344 98.351562 315.464844 97.820312 C 316.21875 96.90625 312.640625 97.898438 315.082031 97.898438 C 317.96875 97.898438 320.734375 97.316406 323.320312 96.019531 C 324.949219 95.203125 323.535156 96.285156 324.703125 95 C 325.503906 94.109375 325.878906 93.363281 326.203125 92.210938 C 327.589844 87.28125 332.25 83.21875 335.855469 79.777344 C 337.273438 78.429688 333.652344 79.777344 336.863281 79.777344 C 338.882812 79.777344 340.90625 79.777344 342.925781 79.777344 C 346.601562 79.777344 348.601562 77.835938 351.566406 75.664062 C 354.417969 73.585938 359.238281 70.695312 360.089844 67 C 361.441406 61.144531 346.535156 55.65625 343.09375 54.59375 C 336.785156 52.65625 327.628906 61.363281 324.074219 65.183594 C 319.632812 69.957031 316.273438 74.550781 309.453125 75.480469 C 305.585938 76.003906 301.730469 76.46875 298.097656 77.980469 C 294.855469 79.324219 292.355469 81.542969 290.191406 84.273438 C 288.832031 85.996094 287.308594 87.957031 285.144531 88.660156 C 281.5625 89.816406 276.9375 88.820312 273.296875 88.613281 C 269.773438 88.414062 266.285156 88.257812 262.761719 88.511719 C 255.554688 89.03125 254.160156 93.457031 254.84375 99.597656 C 255.300781 103.753906 253.503906 108.324219 248.542969 107.757812 C 248.902344 108.21875 249.253906 108.679688 249.613281 109.144531 C 252.742188 102.660156 248.664062 97.1875 242.476562 94.984375 C 233.933594 91.945312 222.855469 100.277344 218.675781 107.054688 C 214.527344 113.773438 215.871094 122.976562 216.503906 130.449219 C 216.832031 134.304688 217.359375 138.199219 217.09375 142.070312 C 216.9375 144.382812 209.636719 143.480469 207.253906 143.910156 C 203.722656 144.546875 199.433594 146.070312 196.730469 148.539062 C 195.929688 149.269531 194.808594 150.261719 194.605469 151.417969 C 194.035156 154.691406 191.75 156.414062 189.179688 158.292969 C 187.804688 159.300781 186.335938 160.195312 184.851562 161.027344 C 186.382812 160.171875 185.453125 160.839844 184.171875 160.929688 C 180.808594 161.167969 177.429688 161.707031 174.210938 162.722656 C 171.945312 163.441406 169.964844 164.550781 168.578125 166.496094 C 166.375 169.613281 171.714844 174.230469 172.8125 176.425781 C 174.746094 180.289062 174.460938 185.738281 172.445312 189.59375 C 173.632812 189.589844 174.820312 189.585938 176.007812 189.578125 C 175.980469 182.089844 169.902344 176.546875 164.472656 172.183594 C 159.460938 168.15625 156.292969 166.394531 152.074219 172.679688 C 149.457031 176.582031 153.519531 181.144531 156.664062 183.003906 C 158.152344 183.886719 160.59375 184.796875 161.300781 186.519531 C 161.90625 188 159.824219 190.777344 159.074219 191.808594 C 157.796875 193.558594 156.234375 195.050781 154.554688 196.40625 C 149.628906 200.390625 138.253906 207.5625 141.738281 215.160156 C 144.691406 221.605469 151.621094 228.835938 157.601562 232.222656 C 158.578125 232.773438 158.425781 230.710938 157.679688 231.421875 C 157.097656 231.976562 156.542969 232.558594 155.984375 233.136719 C 154.519531 234.664062 153.234375 236.324219 152.042969 238.066406 C 149.25 242.128906 150.722656 244.359375 153.503906 247.796875 C 155.265625 249.96875 157.113281 252.152344 158.230469 254.742188 C 159.207031 257 155.433594 257.003906 154.136719 258.105469 C 149.953125 261.664062 153.058594 267.34375 154.667969 271.605469 C 157.121094 278.101562 159.644531 284.851562 158.875 291.902344 C 158.457031 295.703125 149.355469 301.238281 152.425781 305.234375 C 155.632812 309.421875 166.183594 309.515625 162.25 316.355469 C 160.253906 319.835938 154.976562 322.816406 152.15625 325.792969 C 148.246094 329.914062 144.652344 334.34375 141.128906 338.800781 C 139.820312 340.457031 138.535156 342.140625 137.253906 343.828125 C 136.074219 345.382812 136.070312 345.613281 134.878906 345.734375 C 130.285156 346.1875 107.261719 349.558594 113.101562 358.050781 C 115.285156 361.222656 125.148438 368.710938 116.128906 368.941406 C 112.929688 369.027344 103.089844 368.941406 105.824219 374.890625 C 109.429688 382.742188 118.039062 387.160156 125.148438 391.257812 C 128.601562 393.25 132.511719 396.015625 136.371094 397.203125 C 138.957031 397.992188 143.046875 396.167969 145.832031 396.292969 C 149.804688 396.480469 150.566406 398.753906 150.894531 402.195312 C 151.164062 405.078125 152.832031 407.683594 154.664062 409.8125 C 158.207031 413.917969 163.796875 413.429688 168.457031 415.191406 C 175.425781 417.820312 189.527344 424.292969 192.625 413.570312 C 194.351562 407.59375 203.054688 416.804688 204.761719 418.742188 C 207.148438 421.445312 207.417969 425.277344 210.785156 427.585938 C 214.609375 430.210938 218.757812 430.25 222.929688 428.316406 C 227.136719 426.363281 227.71875 424.121094 232.511719 425.304688 C 239.261719 426.96875 246.25 429.886719 250.621094 435.496094 C 253.914062 439.71875 251.671875 445.875 254.324219 450.585938 C 255.191406 452.132812 257.398438 454.039062 259.308594 454.140625 C 264.800781 454.425781 271.285156 455.585938 274.996094 459.972656 C 278.085938 463.632812 273.976562 469.828125 279.734375 472.125 C 284.035156 473.839844 289.773438 473.4375 293.265625 476.832031 C 295.585938 479.09375 291.375 484.570312 292.214844 487.492188 C 294.121094 494.117188 310.046875 493.308594 314.59375 493.390625 C 317.640625 493.445312 321.183594 493.542969 325.128906 492.710938 C 327.695312 492.164062 330.144531 491.394531 332.46875 490.160156 C 335.949219 488.3125 339.476562 485.496094 343.664062 487.691406 C 345.101562 488.445312 346.402344 489.398438 347.886719 490.097656 C 351.214844 491.664062 355.371094 492.132812 358.511719 489.878906 C 361.34375 487.84375 364.90625 486.390625 368.28125 487.933594 C 369.78125 488.621094 370.613281 490.058594 371.894531 491.023438 C 373.914062 492.539062 376.074219 493.449219 378.449219 494.265625 C 381.097656 495.179688 383.859375 495.742188 386.519531 496.621094 C 390.074219 497.796875 389.253906 499.554688 387.9375 502.257812 C 384.65625 508.984375 379.679688 515.925781 374.621094 521.464844 C 372.882812 523.363281 365.199219 530.820312 368.582031 533.476562 C 369.53125 534.222656 371.238281 533.804688 372.277344 533.597656 C 376.101562 532.824219 379.179688 531.117188 383.046875 532.953125 C 388.847656 535.703125 388.28125 542.964844 394.160156 546.027344 C 395.957031 546.960938 398.484375 545.601562 398.738281 543.605469 C 399.496094 537.652344 399.332031 531.5625 400.136719 525.570312 C 401.78125 513.308594 403.992188 501.125 406.605469 489.035156 C 408.507812 480.191406 409.886719 468.097656 415.4375 460.667969 C 418.128906 457.066406 418.351562 453.863281 415.902344 450.011719 C 414.882812 448.40625 413.320312 447.128906 411.855469 445.953125 C 411.402344 445.582031 410.917969 445.261719 410.4375 444.941406 C 411.019531 445.328125 410.441406 446.550781 410.925781 445.421875 C 414.460938 437.1875 402.152344 429.785156 397.046875 426.101562 C 390.710938 421.539062 390.269531 414.253906 394.707031 408.363281 C 396.136719 406.472656 397.210938 406.914062 395.074219 407.078125 C 398.144531 406.839844 401.207031 406.523438 404.269531 406.191406 C 405.855469 406.019531 422.550781 404.980469 422.550781 401.445312 C 422.550781 401.421875 423.847656 398.542969 423.691406 397.132812 C 423.332031 393.882812 421.933594 390.828125 420.386719 387.980469 C 419.851562 386.984375 417.734375 387.625 417.214844 388.289062 C 405.1875 403.773438 390.53125 372.851562 401.789062 369.773438 C 404.863281 368.933594 408.390625 369.925781 411.316406 370.855469 C 415.011719 372.035156 418.980469 372.582031 422.566406 373.683594 C 427.042969 375.054688 432.914062 374.339844 437.523438 374.296875 C 442.761719 374.242188 448.035156 373.921875 453.246094 373.378906 C 453.9375 373.304688 455.621094 372.679688 455.25 371.660156 C 453.996094 368.136719 452.738281 364.621094 451.476562 361.097656 C 450.316406 361.511719 449.152344 361.933594 447.984375 362.359375 C 452.46875 367.09375 460.203125 375.335938 466.585938 368.476562 C 469 365.875 469.863281 361.964844 472.082031 359.15625 C 473.625 357.210938 475.222656 361.242188 476.757812 363.074219 C 477.648438 364.125 478.6875 365.050781 479.742188 365.925781 C 484.707031 370.046875 484.34375 374.265625 484.472656 380.390625 C 484.5625 384.707031 484.671875 388.476562 489.851562 388.167969 C 491.976562 388.039062 495.582031 387.414062 496.144531 384.945312 C 496.476562 383.53125 495.644531 381.554688 495.332031 380.21875 C 494.332031 375.945312 493.636719 371.625 493.074219 367.277344 C 492.878906 365.738281 489.226562 366.621094 489.4375 368.25 C 490.160156 373.84375 491.601562 379.246094 492.472656 384.792969 C 492.640625 385.910156 489.050781 386.125 488.496094 384.464844 C 487.476562 381.410156 488.195312 377.359375 487.960938 374.179688 C 487.515625 368.214844 485.105469 366.421875 481.070312 362.558594 C 479.199219 360.761719 478.070312 358.339844 476.027344 356.71875 C 472.613281 354.003906 468.824219 358.242188 467.0625 361.175781 C 466.148438 362.691406 465.402344 364.308594 464.546875 365.859375 C 464.15625 366.566406 463.792969 367.160156 463.367188 367.839844 C 464.320312 366.320312 463.273438 367.996094 463.007812 368.3125 C 462.5625 368.867188 461.96875 369.097656 461.472656 369.589844 C 462.34375 368.722656 457.542969 366.421875 456.375 365.527344 C 454.550781 364.132812 452.90625 362.46875 451.332031 360.808594 C 450.496094 359.929688 447.289062 360.53125 447.835938 362.066406 C 449.097656 365.589844 450.355469 369.113281 451.617188 372.636719 C 452.28125 372.0625 452.957031 371.492188 453.621094 370.921875 C 445.648438 371.753906 437.585938 372.027344 429.574219 371.714844 C 428.605469 371.675781 427.644531 371.613281 426.679688 371.527344 C 424.078125 371.117188 423.535156 371.117188 425.054688 371.535156 C 424.820312 371.394531 424.5625 371.316406 424.289062 371.296875 C 420.628906 370.839844 417.238281 370.003906 413.792969 368.671875 C 407.625 366.292969 397.3125 365.621094 394.191406 372.933594 C 391.269531 379.777344 398.125 389.988281 403.429688 393.816406 C 409.234375 397.996094 416.429688 394.09375 420.222656 389.214844 C 419.160156 389.320312 418.101562 389.425781 417.042969 389.527344 C 418.613281 392.425781 421.167969 397.128906 419.746094 400.464844 C 419.023438 402.148438 415.503906 402.183594 413.679688 402.484375 C 408.117188 403.402344 402.503906 404.007812 396.882812 404.5 C 394.964844 404.667969 393.953125 404.933594 392.632812 406.34375 C 386.828125 412.519531 386.484375 420.363281 392.402344 426.539062 C 395.953125 430.246094 412.074219 438.214844 407.179688 445.710938 C 406.914062 446.117188 407.105469 446.625 407.488281 446.863281 C 411.863281 449.617188 416.316406 454.617188 412.429688 459.746094 C 410.273438 462.589844 409.210938 466.011719 408.089844 469.359375 C 404.632812 479.675781 402.5625 490.554688 400.503906 501.222656 C 398.164062 513.398438 395.882812 525.820312 395.253906 538.226562 C 395.1875 539.667969 395.246094 541.132812 395.238281 542.570312 C 395.425781 542.773438 395.613281 542.988281 395.800781 543.1875 C 395.167969 542.492188 394.585938 541.746094 394.066406 540.953125 C 392.832031 539.242188 391.824219 537.328125 390.851562 535.453125 C 390.234375 534.265625 388.800781 532.914062 387.570312 531.96875 C 382.382812 528.003906 377.003906 530.238281 371.382812 531.375 C 371.234375 531.402344 375.144531 525.238281 376.0625 524.160156 C 377.117188 522.921875 378.164062 521.730469 379.167969 520.449219 C 384.121094 514.097656 390.371094 506.988281 392.753906 499.183594 C 393.617188 496.359375 390.839844 495.179688 388.664062 494.320312 C 386.074219 493.296875 383.253906 492.773438 380.59375 491.964844 C 377.207031 490.929688 375.363281 489.191406 372.730469 487.046875 C 368.433594 483.542969 362.195312 484.480469 357.769531 487.300781 C 352.414062 490.710938 349.628906 486.90625 345.367188 485.132812 C 340.214844 482.996094 335.921875 484.433594 331.671875 487.722656 C 328.171875 490.429688 322.65625 491.070312 318.363281 490.929688 C 314.375 490.800781 297.539062 492.367188 295.800781 486.324219 C 294.714844 482.558594 299.191406 479.078125 296.660156 475.34375 C 295.203125 473.199219 291.40625 472.308594 289.203125 471.683594 C 286.582031 470.949219 283.769531 470.871094 281.363281 469.480469 C 278.0625 467.570312 280.605469 462.523438 279.039062 459.6875 C 276.496094 455.082031 271.351562 453.472656 266.480469 452.449219 C 262.914062 451.691406 260.683594 452.472656 258.253906 449.84375 C 254.765625 446.054688 256.851562 440.269531 255.003906 435.78125 C 252.832031 430.484375 246.664062 427.390625 241.730469 425.328125 C 235.367188 422.671875 229.171875 420.660156 223.285156 424.988281 C 215.996094 430.359375 210.539062 423.828125 208.441406 417.703125 C 207.433594 414.742188 201.75 410.988281 198.992188 409.890625 C 196.785156 409.011719 193.515625 408.144531 191.402344 409.789062 C 190.308594 410.636719 189.738281 411.480469 189.285156 412.796875 C 189.015625 413.582031 188.824219 414.390625 188.550781 415.175781 C 187.363281 418.574219 181.234375 416.4375 178.902344 415.84375 C 173.203125 414.398438 167.773438 412.25 162.066406 410.863281 C 157.730469 409.800781 155.414062 405.136719 154.53125 401.21875 C 154.058594 399.128906 154.476562 396.925781 152.421875 395.546875 C 149.484375 393.570312 145.859375 393.632812 142.464844 393.941406 C 140.949219 394.082031 139.441406 394.386719 137.953125 394.707031 C 136.550781 395.011719 137.734375 394.527344 138.753906 395.003906 C 138.0625 394.679688 137.386719 394.316406 136.703125 393.96875 C 127.835938 389.457031 116.125 384.382812 110.480469 375.683594 C 107.761719 371.492188 109.890625 371.675781 114.410156 371.449219 C 116.707031 371.332031 119.269531 371.558594 121.382812 370.433594 C 123.957031 369.070312 124.109375 366.695312 122.890625 364.285156 C 120.4375 359.429688 111.910156 355.171875 119.933594 351.398438 C 122.875 350.015625 126.230469 349.402344 129.410156 348.867188 C 131.777344 348.472656 137.070312 349.066406 138.597656 346.984375 C 144.03125 339.574219 149.808594 332.355469 156.136719 325.691406 C 159.5 322.140625 171.769531 315.054688 165.207031 308.996094 C 163.386719 307.3125 160.105469 306.652344 157.949219 305.558594 C 152.824219 302.949219 158.152344 299.371094 160.226562 296.910156 C 164.296875 292.074219 162.691406 284.730469 161.257812 279.253906 C 159.710938 273.355469 155.515625 267.074219 155.699219 260.929688 C 155.792969 257.789062 163.292969 259.085938 162.101562 254.628906 C 160.953125 250.335938 157.328125 246.976562 154.707031 243.53125 C 152.066406 240.066406 158.671875 234.21875 161.082031 231.96875 C 161.492188 231.585938 161.582031 230.792969 160.992188 230.511719 C 156.355469 228.296875 153.199219 224.246094 150.046875 220.347656 C 148.199219 218.070312 145.96875 215.875 144.917969 213.082031 C 143.246094 208.632812 150.074219 203.960938 152.808594 201.433594 C 156.347656 198.171875 159.980469 195.609375 162.84375 191.683594 C 164.414062 189.527344 166.464844 185.492188 163.511719 183.464844 C 160.3125 181.273438 157.0625 180.207031 155.359375 176.429688 C 154.15625 173.753906 156.164062 171.78125 158.035156 170.507812 C 157.46875 170.894531 155.523438 170.03125 156.414062 170.527344 C 163.039062 174.222656 172.296875 181.410156 172.332031 189.914062 C 172.34375 191.691406 175.320312 190.992188 175.894531 189.902344 C 176.921875 187.945312 177.46875 185.648438 177.679688 183.46875 C 178.011719 180.074219 177.191406 176.929688 175.6875 173.925781 C 173.667969 169.882812 169.066406 166.828125 175.8125 164.695312 C 179.34375 163.578125 183.878906 164.378906 186.792969 162.75 C 189.320312 161.34375 191.828125 159.769531 194.007812 157.859375 C 195.046875 156.949219 196.144531 156.019531 196.910156 154.851562 C 197.835938 153.445312 197.914062 151.460938 198.929688 150.195312 C 202.152344 146.1875 210.792969 145.109375 215.367188 146.113281 C 216.761719 146.421875 218.101562 146.269531 219.242188 145.363281 C 222.421875 142.835938 220.660156 135.390625 220.371094 132.035156 C 219.714844 124.464844 218.09375 115.285156 221.625 108.179688 C 225.117188 101.132812 235.46875 94.617188 242.949219 98.410156 C 246.84375 100.386719 247.964844 105.101562 246.164062 108.835938 C 245.769531 109.644531 246.5 110.136719 247.230469 110.21875 C 250.53125 110.597656 254.476562 109.480469 256.570312 106.769531 C 259.691406 102.738281 257.90625 99.105469 258.144531 94.558594 C 258.507812 87.636719 278.882812 91.75 283.480469 91.359375 C 287.714844 91 290.640625 88.363281 293.199219 85.199219 C 299.132812 77.859375 306.992188 79.3125 315.113281 76.667969 C 325.148438 73.398438 329.167969 58.246094 340.433594 57.0625 C 343.667969 56.722656 339.816406 56.5625 340.984375 56.921875 C 343.558594 57.710938 344.152344 57.40625 346.679688 58.898438 C 348.09375 59.726562 349.457031 60.730469 350.882812 61.578125 C 353.019531 62.847656 355.402344 64.441406 356.347656 66.84375 C 357.234375 69.101562 350.710938 73.089844 349.203125 74.191406 C 348.164062 74.949219 347.113281 75.730469 346.046875 76.460938 C 342.773438 78.691406 346.445312 77.3125 345.101562 77.3125 C 343.058594 77.3125 341.019531 77.3125 338.976562 77.3125 C 336.898438 77.3125 334.917969 76.941406 333.296875 78.4375 C 330.035156 81.4375 327.027344 84.699219 324.46875 88.316406 C 323.34375 89.90625 322.441406 95 320.183594 95 C 318.644531 95 314.699219 94.988281 313.378906 95.921875 C 311.480469 97.253906 309.707031 100.332031 308.386719 102.125 C 303.328125 108.992188 299.636719 116.039062 298.367188 124.492188 C 297.660156 129.195312 294.554688 134.222656 291.359375 138.625 C 290.210938 140.210938 285.882812 143.445312 285.550781 145.632812 C 284.625 151.679688 289.457031 156.207031 295.019531 153.957031 C 295.839844 153.621094 299.835938 150.242188 300.410156 152.386719 C 300.898438 154.214844 301.550781 155.902344 301.734375 157.839844 C 302.078125 161.453125 301.429688 165.257812 302.824219 168.695312 C 303.972656 171.535156 306.195312 173.21875 308.78125 174.707031 C 312.3125 176.742188 320.515625 178.039062 317.726562 183.515625 C 316.460938 186.003906 314.152344 187.949219 312.542969 190.160156 C 309.882812 193.800781 310.320312 196.949219 312.84375 200.628906 C 314.011719 202.335938 315.375 204.058594 317.015625 205.335938 C 318.109375 206.191406 321.683594 207.515625 322.253906 208.070312 C 323.769531 209.535156 323.585938 212.597656 323.539062 214.570312 C 323.523438 215.246094 324.089844 215.597656 324.722656 215.636719 C 335.738281 216.292969 346.777344 216.695312 357.820312 216.621094 C 364.847656 216.574219 372.820312 214.207031 379.453125 216.945312 C 386.289062 219.761719 392.246094 224.304688 397.679688 229.242188 C 402.449219 233.574219 405.601562 239.074219 410.070312 243.574219 C 417.128906 250.695312 429.863281 250.660156 438.96875 248.5625 C 445.308594 247.105469 451.292969 244.625 456.195312 240.273438 C 459.550781 237.300781 469.628906 233.210938 471.472656 240.441406 C 473.101562 246.824219 467.335938 252.386719 466.253906 258.082031 C 466.007812 259.351562 466.40625 260.386719 466.347656 261.644531 C 466.234375 264.210938 462.71875 266.707031 461.289062 268.816406 C 458.902344 272.335938 458.753906 276.820312 459 280.90625 C 459.691406 292.300781 467.6875 303.171875 474.984375 311.300781 C 477.753906 314.386719 484.761719 318.175781 480.558594 323.21875 C 478.089844 326.183594 473.722656 328.40625 470.621094 330.648438 C 467.941406 332.585938 465.257812 334.515625 462.566406 336.4375 C 461.734375 337.03125 461.710938 337.921875 462.679688 338.328125 C 474.308594 343.234375 487.6875 354.449219 489.4375 368.25 C 489.628906 369.792969 493.285156 368.90625 493.074219 367.277344 " fill-opacity="1" fill-rule="nonzero"/></g><path fill="#ffffff" d="M 237.804688 117.351562 C 238.074219 116.90625 239.675781 116.816406 239.535156 117.050781 C 239.335938 117.363281 239.140625 117.683594 238.945312 118.003906 C 242.019531 119.402344 245.101562 120.800781 248.179688 122.203125 C 248.316406 121.808594 248.484375 121.433594 248.691406 121.078125 C 239.105469 116.714844 229.519531 112.355469 219.929688 107.996094 C 219.734375 108.34375 219.550781 108.714844 219.390625 109.105469 C 225.503906 111.886719 231.625 114.671875 237.742188 117.453125 L 237.804688 117.351562 " fill-opacity="1" fill-rule="nonzero"/><path fill="#ffffff" d="M 227.394531 100.21875 C 225.257812 101.894531 223.113281 103.988281 220.964844 106.472656 C 220.769531 106.703125 220.59375 106.953125 220.414062 107.207031 C 222.742188 104.882812 225.066406 102.550781 227.394531 100.21875 " fill-opacity="1" fill-rule="nonzero"/><path fill="#ffffff" d="M 283.6875 103.082031 C 274.695312 101.917969 265.703125 100.75 256.710938 99.582031 C 256.726562 99.761719 256.742188 99.949219 256.757812 100.136719 L 256.769531 100.414062 L 256.78125 100.714844 C 265.707031 101.875 274.628906 103.03125 283.554688 104.1875 C 283.578125 103.8125 283.617188 103.445312 283.6875 103.082031 " fill-opacity="1" fill-rule="nonzero"/><path fill="#ffffff" d="M 234.472656 97.820312 C 238.601562 98.359375 242.726562 98.894531 246.855469 99.429688 C 246.453125 98.972656 245.976562 98.535156 245.40625 98.113281 C 241.816406 97.648438 238.222656 97.183594 234.632812 96.714844 C 234.632812 97.105469 234.566406 97.464844 234.472656 97.820312 " fill-opacity="1" fill-rule="nonzero"/><path fill="#ffffff" d="M 260.003906 124.097656 C 269.617188 123.164062 279.230469 122.230469 288.84375 121.292969 C 288.941406 121.117188 289.035156 120.941406 289.132812 120.769531 C 289.398438 120.277344 291.066406 120.136719 290.863281 120.503906 C 290.75 120.714844 290.632812 120.921875 290.519531 121.132812 C 293.976562 120.800781 297.425781 120.464844 300.878906 120.125 C 300.9375 119.871094 300.988281 119.617188 301.054688 119.355469 L 301.074219 119.277344 L 301.160156 118.992188 C 287.40625 120.328125 273.652344 121.667969 259.898438 122.996094 C 259.964844 123.355469 260.003906 123.722656 260.003906 124.097656 " fill-opacity="1" fill-rule="nonzero"/><path fill="#ffffff" d="M 281.972656 136.726562 C 284.824219 131.53125 287.675781 126.328125 290.519531 121.132812 C 290.632812 120.921875 290.75 120.714844 290.863281 120.503906 C 291.066406 120.136719 289.398438 120.277344 289.132812 120.769531 C 289.035156 120.941406 288.941406 121.117188 288.84375 121.292969 C 286.144531 126.214844 283.449219 131.132812 280.757812 136.054688 C 281.238281 136.136719 281.660156 136.382812 281.972656 136.726562 " fill-opacity="1" fill-rule="nonzero"/><path fill="#ffffff" d="M 332.292969 73.304688 C 332.292969 72.996094 332.332031 72.691406 332.398438 72.398438 C 328.441406 72.023438 324.492188 71.652344 320.535156 71.285156 C 320.226562 71.601562 319.917969 71.910156 319.605469 72.210938 C 323.839844 72.609375 328.074219 73.003906 332.304688 73.402344 L 332.292969 73.304688 " fill-opacity="1" fill-rule="nonzero"/><path fill="#ffffff" d="M 291.535156 96.652344 C 291.832031 96.652344 292.121094 96.671875 292.40625 96.703125 C 292.40625 92.414062 292.40625 88.128906 292.40625 83.839844 C 292.160156 84.152344 291.929688 84.449219 291.699219 84.734375 L 291.515625 84.960938 C 291.316406 85.203125 291.125 85.441406 290.933594 85.664062 L 290.832031 85.789062 L 290.660156 85.984375 C 290.660156 89.558594 290.660156 93.128906 290.660156 96.707031 C 290.949219 96.671875 291.238281 96.652344 291.535156 96.652344 " fill-opacity="1" fill-rule="nonzero"/><path fill="#ffffff" d="M 226.191406 136.191406 C 221.550781 143.722656 216.90625 151.25 212.265625 158.785156 C 212.679688 158.957031 213.039062 159.207031 213.375 159.492188 C 218.007812 151.972656 222.644531 144.449219 227.277344 136.933594 C 226.976562 136.777344 226.675781 136.617188 226.378906 136.46875 C 226.226562 136.382812 226.1875 136.289062 226.191406 136.191406 " fill-opacity="1" fill-rule="nonzero"/><path fill="#ffffff" d="M 237.804688 117.351562 L 237.742188 117.453125 C 233.949219 123.601562 230.160156 129.746094 226.371094 135.894531 C 226.722656 135.609375 227.421875 135.386719 227.757812 135.5625 L 228.03125 135.707031 C 231.667969 129.804688 235.308594 123.898438 238.945312 118.003906 C 239.140625 117.683594 239.335938 117.363281 239.535156 117.050781 C 239.675781 116.816406 238.074219 116.90625 237.804688 117.351562 " fill-opacity="1" fill-rule="nonzero"/><path fill="#ffffff" d="M 249.085938 179.515625 C 249.125 178.980469 249.335938 178.496094 249.667969 178.113281 C 238.054688 173.324219 226.4375 168.535156 214.820312 163.738281 C 214.710938 164.25 214.507812 164.722656 214.238281 165.148438 C 225.859375 169.933594 237.472656 174.726562 249.085938 179.515625 " fill-opacity="1" fill-rule="nonzero"/><path fill="#ffffff" d="M 274.558594 161.585938 C 283.46875 166.234375 292.386719 170.875 301.296875 175.519531 C 301.449219 175.058594 301.664062 174.628906 301.953125 174.25 C 292.722656 169.4375 283.488281 164.621094 274.253906 159.808594 L 274.332031 159.964844 C 274.40625 160.507812 274.484375 161.046875 274.558594 161.585938 " fill-opacity="1" fill-rule="nonzero"/><path fill="#ffffff" d="M 226.371094 135.894531 C 226.261719 135.992188 226.195312 136.089844 226.191406 136.191406 C 226.1875 136.289062 226.226562 136.382812 226.378906 136.46875 C 226.675781 136.617188 226.976562 136.777344 227.277344 136.933594 C 242.382812 144.808594 257.492188 152.683594 272.601562 160.566406 L 272.582031 160.433594 C 272.507812 159.898438 273.289062 159.535156 273.832031 159.589844 C 258.5625 151.625 243.300781 143.664062 228.03125 135.707031 L 227.757812 135.5625 C 227.421875 135.386719 226.722656 135.609375 226.371094 135.894531 " fill-opacity="1" fill-rule="nonzero"/><path fill="#ffffff" d="M 282.242188 139.3125 C 285.054688 140.148438 287.871094 140.984375 290.6875 141.824219 C 290.921875 141.546875 291.167969 141.242188 291.417969 140.933594 C 288.460938 140.050781 285.5 139.171875 282.542969 138.289062 C 282.527344 138.664062 282.417969 139.007812 282.242188 139.3125 " fill-opacity="1" fill-rule="nonzero"/><path fill="#ffffff" d="M 272.582031 160.433594 L 272.601562 160.566406 C 274.695312 175.441406 276.796875 190.316406 278.890625 205.195312 C 279.351562 205.027344 279.847656 204.917969 280.367188 204.917969 L 280.667969 204.949219 C 278.632812 190.496094 276.59375 176.035156 274.558594 161.585938 C 274.484375 161.046875 274.40625 160.507812 274.332031 159.964844 L 274.253906 159.808594 C 274.171875 159.675781 274.019531 159.601562 273.832031 159.589844 C 273.289062 159.535156 272.507812 159.898438 272.582031 160.433594 " fill-opacity="1" fill-rule="nonzero"/><path fill="#ffffff" d="M 305.296875 181.222656 C 306.953125 190.421875 308.617188 199.625 310.277344 208.824219 C 311.015625 208.515625 312.203125 209.078125 311.28125 209.683594 C 311.027344 209.855469 310.773438 210.023438 310.523438 210.183594 C 312.191406 219.433594 313.859375 228.679688 315.527344 237.925781 C 315.878906 237.683594 316.308594 237.535156 316.769531 237.535156 C 316.953125 237.535156 317.132812 237.566406 317.304688 237.609375 C 313.898438 218.707031 310.484375 199.8125 307.078125 180.910156 C 306.570312 181.113281 306.015625 181.238281 305.433594 181.238281 L 305.296875 181.222656 " fill-opacity="1" fill-rule="nonzero"/><path fill="#ffffff" d="M 310.277344 208.824219 L 310.121094 208.894531 C 295.914062 218.25 281.707031 227.609375 267.496094 236.972656 C 267.828125 237.261719 268.070312 237.628906 268.210938 238.058594 C 282.316406 228.769531 296.417969 219.484375 310.523438 210.183594 C 310.773438 210.023438 311.027344 209.855469 311.28125 209.683594 C 312.203125 209.078125 311.015625 208.515625 310.277344 208.824219 " fill-opacity="1" fill-rule="nonzero"/><path fill="#ffffff" d="M 236.671875 254.722656 L 236.816406 254.449219 C 237 254.082031 238.003906 253.871094 238.359375 254.082031 C 230.074219 249.902344 221.78125 245.71875 213.484375 241.542969 C 213.34375 241.976562 213.152344 242.378906 212.894531 242.742188 C 220.816406 246.734375 228.746094 250.730469 236.671875 254.722656 " fill-opacity="1" fill-rule="nonzero"/><path fill="#ffffff" d="M 238.445312 254.480469 C 238.292969 254.777344 238.136719 255.082031 237.984375 255.386719 C 245.742188 259.296875 253.503906 263.207031 261.265625 267.125 C 261.441406 266.710938 261.648438 266.3125 261.875 265.929688 C 254.042969 261.984375 246.214844 258.042969 238.390625 254.097656 C 238.496094 254.167969 238.539062 254.296875 238.445312 254.480469 " fill-opacity="1" fill-rule="nonzero"/><path fill="#ffffff" d="M 263.53125 238.34375 C 246.910156 238.761719 230.277344 239.179688 213.652344 239.589844 C 213.683594 239.796875 213.714844 240 213.714844 240.203125 C 213.714844 240.339844 213.6875 240.472656 213.675781 240.613281 C 230.304688 240.195312 246.933594 239.777344 263.558594 239.367188 C 263.519531 239.179688 263.484375 238.996094 263.484375 238.800781 C 263.484375 238.644531 263.503906 238.492188 263.53125 238.34375 " fill-opacity="1" fill-rule="nonzero"/><path fill="#ffffff" d="M 236.816406 254.449219 L 236.671875 254.722656 C 233.941406 260.078125 231.203125 265.429688 228.46875 270.785156 C 228.949219 270.917969 229.390625 271.148438 229.769531 271.453125 C 232.507812 266.09375 235.238281 260.738281 237.984375 255.386719 C 238.136719 255.082031 238.292969 254.777344 238.445312 254.480469 C 238.539062 254.296875 238.496094 254.167969 238.390625 254.097656 L 238.359375 254.082031 C 238.003906 253.871094 237 254.082031 236.816406 254.449219 " fill-opacity="1" fill-rule="nonzero"/><path fill="#ffffff" d="M 198.726562 255.921875 C 199.105469 256.058594 199.476562 256.195312 199.855469 256.332031 C 200.363281 256.519531 198.800781 257.136719 198.414062 256.996094 L 198.125 256.886719 C 194.171875 263.257812 190.222656 269.621094 186.273438 275.984375 C 186.71875 276.210938 187.140625 276.472656 187.535156 276.769531 C 194.261719 265.929688 200.984375 255.085938 207.710938 244.246094 C 207.246094 244.0625 206.828125 243.785156 206.460938 243.457031 C 203.882812 247.613281 201.304688 251.765625 198.726562 255.921875 " fill-opacity="1" fill-rule="nonzero"/><path fill="#ffffff" d="M 199.855469 256.332031 C 199.476562 256.195312 199.105469 256.058594 198.726562 255.921875 C 186.382812 251.421875 174.039062 246.925781 161.695312 242.421875 C 161.652344 242.808594 161.523438 243.171875 161.320312 243.480469 C 173.589844 247.953125 185.855469 252.421875 198.125 256.886719 L 198.414062 256.996094 C 198.800781 257.136719 200.363281 256.519531 199.855469 256.332031 " fill-opacity="1" fill-rule="nonzero"/><path fill="#ffffff" d="M 207.445312 236.289062 C 199.839844 226.335938 192.230469 216.390625 184.625 206.433594 C 184.226562 206.867188 183.757812 207.21875 183.230469 207.488281 C 190.84375 217.445312 198.457031 227.398438 206.066406 237.347656 C 206.449219 236.910156 206.917969 236.546875 207.445312 236.289062 " fill-opacity="1" fill-rule="nonzero"/><path fill="#ffffff" d="M 175.851562 203.539062 C 165.140625 205.324219 154.425781 207.113281 143.714844 208.902344 C 143.578125 209.117188 143.457031 209.335938 143.351562 209.550781 C 154.210938 207.734375 165.066406 205.925781 175.929688 204.113281 C 175.886719 203.925781 175.871094 203.730469 175.851562 203.539062 " fill-opacity="1" fill-rule="nonzero"/><path fill="#ffffff" d="M 158.136719 169.722656 L 158.089844 169.6875 L 157.832031 169.53125 L 157.804688 169.515625 L 157.636719 169.414062 L 157.621094 169.40625 L 157.5625 169.367188 C 157.5625 169.367188 157.058594 169.613281 156.394531 170.074219 C 157.03125 169.992188 157.671875 169.90625 158.304688 169.828125 L 158.136719 169.722656 " fill-opacity="1" fill-rule="nonzero"/><path fill="#ffffff" d="M 206.21875 163.078125 C 194.140625 164.628906 182.0625 166.183594 169.984375 167.738281 C 169.96875 167.929688 169.96875 168.121094 169.992188 168.324219 C 182.089844 166.761719 194.183594 165.207031 206.277344 163.652344 C 206.238281 163.464844 206.230469 163.269531 206.21875 163.078125 " fill-opacity="1" fill-rule="nonzero"/><path fill="#ffffff" d="M 249.074219 179.6875 C 249.074219 181.027344 250.15625 182.109375 251.496094 182.109375 C 252.839844 182.109375 253.925781 181.027344 253.925781 179.6875 C 253.925781 178.351562 252.839844 177.257812 251.496094 177.257812 C 250.761719 177.257812 250.113281 177.597656 249.667969 178.113281 C 249.335938 178.496094 249.125 178.980469 249.085938 179.515625 L 249.074219 179.6875 " fill-opacity="1" fill-rule="nonzero"/><path fill="#ffffff" d="M 278.890625 205.195312 C 277.207031 205.800781 276 207.398438 276 209.285156 C 276 211.695312 277.960938 213.65625 280.367188 213.65625 C 282.789062 213.65625 284.746094 211.695312 284.746094 209.285156 C 284.746094 206.976562 282.945312 205.105469 280.667969 204.949219 L 280.367188 204.917969 C 279.847656 204.917969 279.351562 205.027344 278.890625 205.195312 " fill-opacity="1" fill-rule="nonzero"/><path fill="#ffffff" d="M 210.5625 158.433594 C 208.148438 158.433594 206.191406 160.394531 206.191406 162.800781 L 206.21875 163.078125 C 206.230469 163.269531 206.238281 163.464844 206.277344 163.652344 C 206.671875 165.660156 208.4375 167.175781 210.5625 167.175781 C 212.109375 167.175781 213.460938 166.363281 214.238281 165.148438 C 214.507812 164.722656 214.710938 164.25 214.820312 163.738281 C 214.886719 163.441406 214.929688 163.125 214.929688 162.800781 C 214.929688 161.46875 214.316406 160.289062 213.375 159.492188 C 213.039062 159.207031 212.679688 158.957031 212.265625 158.785156 C 211.746094 158.558594 211.167969 158.433594 210.5625 158.433594 " fill-opacity="1" fill-rule="nonzero"/><path fill="#ffffff" d="M 213.652344 239.589844 C 213.351562 237.472656 211.550781 235.835938 209.347656 235.835938 C 208.664062 235.835938 208.027344 236.007812 207.445312 236.289062 C 206.917969 236.546875 206.449219 236.910156 206.066406 237.347656 C 205.402344 238.117188 204.980469 239.109375 204.980469 240.203125 C 204.980469 241.503906 205.558594 242.65625 206.460938 243.457031 C 206.828125 243.785156 207.246094 244.0625 207.710938 244.246094 C 208.21875 244.453125 208.765625 244.570312 209.347656 244.570312 C 210.8125 244.570312 212.097656 243.84375 212.894531 242.742188 C 213.152344 242.378906 213.34375 241.976562 213.484375 241.542969 C 213.582031 241.246094 213.644531 240.933594 213.675781 240.613281 C 213.6875 240.472656 213.714844 240.339844 213.714844 240.203125 C 213.714844 240 213.683594 239.796875 213.652344 239.589844 " fill-opacity="1" fill-rule="nonzero"/><path fill="#ffffff" d="M 301.0625 176.871094 C 301.0625 179.234375 302.945312 181.148438 305.296875 181.222656 L 305.433594 181.238281 C 306.015625 181.238281 306.570312 181.113281 307.078125 180.910156 C 308.671875 180.257812 309.796875 178.695312 309.796875 176.871094 C 309.796875 174.457031 307.84375 172.5 305.433594 172.5 C 304.003906 172.5 302.753906 173.191406 301.953125 174.25 C 301.664062 174.628906 301.449219 175.058594 301.296875 175.519531 C 301.15625 175.949219 301.0625 176.394531 301.0625 176.871094 " fill-opacity="1" fill-rule="nonzero"/><path fill="#ffffff" d="M 282.550781 138.199219 C 282.550781 137.628906 282.332031 137.113281 281.972656 136.726562 C 281.660156 136.382812 281.238281 136.136719 280.757812 136.054688 C 280.628906 136.035156 280.5 136.015625 280.367188 136.015625 C 279.171875 136.015625 278.191406 136.992188 278.191406 138.199219 C 278.191406 139.40625 279.171875 140.382812 280.367188 140.382812 C 281.171875 140.382812 281.859375 139.949219 282.242188 139.3125 C 282.417969 139.007812 282.527344 138.664062 282.542969 138.289062 L 282.550781 138.199219 " fill-opacity="1" fill-rule="nonzero"/><path fill="#ffffff" d="M 290.660156 96.707031 C 287.175781 97.085938 284.363281 99.695312 283.6875 103.082031 C 283.617188 103.445312 283.578125 103.8125 283.554688 104.1875 C 283.542969 104.347656 283.527344 104.503906 283.527344 104.660156 C 283.527344 109.085938 287.109375 112.667969 291.535156 112.667969 C 295.953125 112.667969 299.546875 109.085938 299.546875 104.660156 C 299.546875 100.535156 296.414062 97.136719 292.40625 96.703125 C 292.121094 96.671875 291.832031 96.652344 291.535156 96.652344 C 291.238281 96.652344 290.949219 96.671875 290.660156 96.707031 " fill-opacity="1" fill-rule="nonzero"/><path fill="#ffffff" d="M 182.839844 275.175781 C 178.539062 275.175781 175.066406 278.648438 175.066406 282.9375 C 175.066406 287.226562 178.539062 290.707031 182.839844 290.707031 C 187.117188 290.707031 190.601562 287.226562 190.601562 282.9375 C 190.601562 280.421875 189.394531 278.1875 187.535156 276.769531 C 187.140625 276.472656 186.71875 276.210938 186.273438 275.984375 C 185.238281 275.476562 184.070312 275.175781 182.839844 275.175781 " fill-opacity="1" fill-rule="nonzero"/><path fill="#ffffff" d="M 315.527344 237.925781 C 314.957031 238.324219 314.585938 238.976562 314.585938 239.71875 C 314.585938 240.925781 315.5625 241.902344 316.769531 241.902344 C 317.976562 241.902344 318.953125 240.925781 318.953125 239.71875 C 318.953125 238.699219 318.25 237.847656 317.304688 237.609375 C 317.132812 237.566406 316.953125 237.535156 316.769531 237.535156 C 316.308594 237.535156 315.878906 237.683594 315.527344 237.925781 " fill-opacity="1" fill-rule="nonzero"/><path fill="#ffffff" d="M 260.382812 271.417969 C 260.382812 277.433594 265.253906 282.304688 271.269531 282.304688 C 277.289062 282.304688 282.167969 277.433594 282.167969 271.417969 C 282.167969 265.402344 277.289062 260.519531 271.269531 260.519531 C 267.257812 260.519531 263.765625 262.699219 261.875 265.929688 C 261.648438 266.3125 261.441406 266.710938 261.265625 267.125 C 260.695312 268.4375 260.382812 269.890625 260.382812 271.417969 " fill-opacity="1" fill-rule="nonzero"/><path fill="#ffffff" d="M 332.304688 73.402344 C 332.359375 75.769531 334.285156 77.671875 336.660156 77.671875 C 339.074219 77.671875 341.03125 75.71875 341.03125 73.304688 C 341.03125 70.894531 339.074219 68.9375 336.660156 68.9375 C 334.5625 68.9375 332.8125 70.425781 332.398438 72.398438 C 332.332031 72.691406 332.292969 72.996094 332.292969 73.304688 L 332.304688 73.402344 " fill-opacity="1" fill-rule="nonzero"/><path fill="#ffffff" d="M 230.144531 101.1875 C 232.230469 101.1875 233.972656 99.753906 234.472656 97.820312 C 234.566406 97.464844 234.632812 97.105469 234.632812 96.714844 L 234.636719 96.695312 C 234.636719 96.550781 234.605469 96.410156 234.59375 96.269531 C 232.226562 96.972656 229.816406 98.320312 227.394531 100.21875 C 228.160156 100.816406 229.105469 101.1875 230.144531 101.1875 " fill-opacity="1" fill-rule="nonzero"/><path fill="#ffffff" d="M 184.625 206.433594 C 185.464844 205.527344 185.984375 204.324219 185.984375 202.996094 C 185.984375 200.183594 183.707031 197.898438 180.890625 197.898438 C 178.078125 197.898438 175.792969 200.183594 175.792969 202.996094 C 175.792969 203.179688 175.832031 203.359375 175.851562 203.539062 C 175.871094 203.730469 175.886719 203.925781 175.929688 204.113281 C 176.441406 206.386719 178.460938 208.089844 180.890625 208.089844 C 181.738281 208.089844 182.53125 207.859375 183.230469 207.488281 C 183.757812 207.21875 184.226562 206.867188 184.625 206.433594 " fill-opacity="1" fill-rule="nonzero"/><path fill="#ffffff" d="M 267.496094 236.972656 C 267.070312 236.597656 266.519531 236.367188 265.914062 236.367188 C 264.726562 236.367188 263.742188 237.222656 263.53125 238.34375 C 263.503906 238.492188 263.484375 238.644531 263.484375 238.800781 C 263.484375 238.996094 263.519531 239.179688 263.558594 239.367188 C 263.8125 240.425781 264.765625 241.226562 265.914062 241.226562 C 267.253906 241.226562 268.335938 240.136719 268.335938 238.800781 C 268.335938 238.539062 268.289062 238.289062 268.210938 238.058594 C 268.070312 237.628906 267.828125 237.261719 267.496094 236.972656 " fill-opacity="1" fill-rule="nonzero"/><path fill="#ffffff" d="M 253.925781 118.046875 C 251.683594 118.046875 249.75 119.273438 248.691406 121.078125 C 248.484375 121.433594 248.316406 121.808594 248.179688 122.203125 C 247.972656 122.816406 247.835938 123.457031 247.835938 124.140625 C 247.835938 127.503906 250.5625 130.21875 253.925781 130.21875 C 257.285156 130.21875 260.011719 127.503906 260.011719 124.140625 L 260.003906 124.097656 C 260.003906 123.722656 259.964844 123.355469 259.898438 122.996094 C 259.363281 120.179688 256.894531 118.046875 253.925781 118.046875 " fill-opacity="1" fill-rule="nonzero"/><path fill="#ffffff" d="M 161.722656 242.148438 C 161.722656 240.8125 160.636719 239.71875 159.296875 239.71875 C 157.964844 239.71875 156.871094 240.8125 156.871094 242.148438 C 156.871094 243.488281 157.964844 244.570312 159.296875 244.570312 C 160.144531 244.570312 160.886719 244.140625 161.320312 243.480469 C 161.523438 243.171875 161.652344 242.808594 161.695312 242.421875 L 161.722656 242.148438 " fill-opacity="1" fill-rule="nonzero"/><path fill="#ffffff" d="M 227.480469 270.632812 C 225.441406 270.632812 223.78125 272.289062 223.78125 274.328125 C 223.78125 276.367188 225.441406 278.015625 227.480469 278.015625 C 229.519531 278.015625 231.167969 276.367188 231.167969 274.328125 C 231.167969 273.160156 230.617188 272.128906 229.769531 271.453125 C 229.390625 271.148438 228.949219 270.917969 228.46875 270.785156 C 228.152344 270.695312 227.824219 270.632812 227.480469 270.632812 " fill-opacity="1" fill-rule="nonzero"/><path fill="#ffffff" d="M 159.746094 329.65625 C 157.824219 328.417969 155.894531 327.167969 153.972656 325.921875 C 153.648438 326.265625 153.324219 326.621094 152.996094 326.96875 C 154.992188 328.257812 156.984375 329.554688 158.976562 330.839844 C 159.191406 330.417969 159.453125 330.027344 159.746094 329.65625 " fill-opacity="1" fill-rule="nonzero"/><path fill="#ffffff" d="M 130.796875 350.265625 L 130.96875 350.285156 C 130.789062 349.359375 130.621094 348.429688 130.441406 347.507812 L 130.132812 347.554688 C 129.953125 347.582031 129.78125 347.613281 129.601562 347.636719 C 129.28125 347.691406 128.964844 347.746094 128.65625 347.796875 C 128.832031 348.734375 129.007812 349.671875 129.179688 350.609375 C 129.675781 350.394531 130.222656 350.265625 130.796875 350.265625 " fill-opacity="1" fill-rule="nonzero"/><path fill="#ffffff" d="M 167.125 327.484375 C 167.59375 327.636719 168.039062 327.835938 168.457031 328.082031 C 171.492188 321.402344 174.53125 314.726562 177.5625 308.046875 C 177.046875 308.003906 176.582031 307.792969 176.230469 307.449219 C 173.195312 314.128906 170.160156 320.804688 167.125 327.484375 " fill-opacity="1" fill-rule="nonzero"/><path fill="#ffffff" d="M 207.324219 316.804688 L 207.09375 317.089844 C 206.8125 317.433594 205.105469 317.664062 205.492188 317.183594 C 205.71875 316.90625 205.941406 316.628906 206.167969 316.351562 C 197.414062 312.894531 188.667969 309.449219 179.914062 305.996094 C 179.882812 306.488281 179.703125 306.929688 179.402344 307.277344 C 197.171875 314.28125 214.933594 321.28125 232.699219 328.289062 C 232.800781 327.832031 232.984375 327.40625 233.214844 327.011719 C 224.582031 323.613281 215.949219 320.207031 207.324219 316.804688 " fill-opacity="1" fill-rule="nonzero"/><path fill="#ffffff" d="M 207.09375 317.089844 L 207.324219 316.804688 C 212.953125 309.792969 218.585938 302.789062 224.214844 295.78125 C 223.847656 295.613281 223.53125 295.351562 223.292969 295.035156 C 217.585938 302.140625 211.878906 309.238281 206.167969 316.351562 C 205.941406 316.628906 205.71875 316.90625 205.492188 317.183594 C 205.105469 317.664062 206.8125 317.433594 207.09375 317.089844 " fill-opacity="1" fill-rule="nonzero"/><path fill="#ffffff" d="M 246.453125 349.625 C 246.253906 349.941406 246.058594 350.257812 245.867188 350.574219 C 248.945312 351.972656 252.023438 353.378906 255.101562 354.777344 C 255.234375 354.382812 255.402344 354.003906 255.613281 353.652344 C 245.957031 349.261719 236.300781 344.871094 226.644531 340.476562 C 226.332031 340.785156 226.023438 341.097656 225.710938 341.40625 C 232.027344 344.28125 238.347656 347.15625 244.660156 350.027344 L 244.726562 349.921875 C 244.996094 349.480469 246.59375 349.386719 246.453125 349.625 " fill-opacity="1" fill-rule="nonzero"/><path fill="#ffffff" d="M 234.316406 332.796875 C 234.027344 332.574219 233.773438 332.3125 233.546875 332.027344 C 226.550781 339.019531 219.5625 346.011719 212.570312 353.003906 C 212.847656 353.246094 213.109375 353.503906 213.34375 353.78125 C 217.46875 349.660156 221.589844 345.53125 225.710938 341.40625 C 226.023438 341.097656 226.332031 340.785156 226.644531 340.476562 C 229.199219 337.917969 231.761719 335.359375 234.316406 332.796875 " fill-opacity="1" fill-rule="nonzero"/><path fill="#ffffff" d="M 290.476562 336.761719 C 290.496094 336.386719 290.535156 336.015625 290.609375 335.652344 C 274.257812 333.535156 257.90625 331.414062 241.554688 329.292969 C 241.554688 329.675781 241.492188 330.039062 241.398438 330.398438 C 257.757812 332.519531 274.117188 334.636719 290.476562 336.761719 " fill-opacity="1" fill-rule="nonzero"/><path fill="#ffffff" d="M 295.761719 353.875 C 295.859375 353.695312 295.957031 353.519531 296.054688 353.34375 C 296.316406 352.859375 297.988281 352.714844 297.789062 353.078125 C 297.671875 353.289062 297.558594 353.5 297.441406 353.707031 C 312.132812 352.285156 326.828125 350.855469 341.519531 349.425781 C 341.445312 349.117188 341.402344 348.792969 341.402344 348.460938 L 341.414062 348.328125 C 316.546875 350.746094 291.683594 353.160156 266.816406 355.574219 C 266.882812 355.933594 266.925781 356.296875 266.929688 356.675781 C 276.542969 355.738281 286.148438 354.804688 295.761719 353.875 " fill-opacity="1" fill-rule="nonzero"/><path fill="#ffffff" d="M 296.054688 353.34375 C 295.957031 353.519531 295.859375 353.695312 295.761719 353.875 C 293.066406 358.796875 290.367188 363.710938 287.675781 368.628906 C 288.15625 368.71875 288.578125 368.957031 288.898438 369.300781 C 291.742188 364.105469 294.59375 358.902344 297.441406 353.707031 C 297.558594 353.5 297.671875 353.289062 297.789062 353.078125 C 297.988281 352.714844 296.316406 352.859375 296.054688 353.34375 " fill-opacity="1" fill-rule="nonzero"/><path fill="#ffffff" d="M 300.761719 302.359375 C 313.582031 303.566406 326.40625 304.773438 339.226562 305.980469 L 339.21875 305.882812 C 339.21875 305.570312 339.25 305.265625 339.316406 304.972656 C 326.5 303.765625 313.675781 302.558594 300.855469 301.355469 L 300.882812 301.632812 C 300.882812 301.890625 300.835938 302.128906 300.761719 302.359375 " fill-opacity="1" fill-rule="nonzero"/><path fill="#ffffff" d="M 299.328125 329.28125 C 299.328125 320.816406 299.328125 312.355469 299.328125 303.894531 C 299.054688 304 298.765625 304.0625 298.457031 304.0625 C 298.148438 304.0625 297.851562 304 297.582031 303.890625 C 297.582031 312.355469 297.582031 320.816406 297.582031 329.28125 C 297.867188 329.25 298.160156 329.230469 298.457031 329.230469 C 298.75 329.230469 299.042969 329.25 299.328125 329.28125 " fill-opacity="1" fill-rule="nonzero"/><path fill="#ffffff" d="M 234.675781 368.144531 L 234.949219 368.285156 C 238.589844 362.382812 242.226562 356.480469 245.867188 350.574219 C 246.058594 350.257812 246.253906 349.941406 246.453125 349.625 C 246.59375 349.386719 244.996094 349.480469 244.726562 349.921875 L 244.660156 350.027344 C 240.871094 356.175781 237.085938 362.324219 233.296875 368.472656 C 233.640625 368.183594 234.347656 367.964844 234.675781 368.144531 " fill-opacity="1" fill-rule="nonzero"/><path fill="#ffffff" d="M 234.199219 369.507812 C 233.898438 369.351562 233.601562 369.199219 233.300781 369.039062 C 233.148438 368.960938 233.105469 368.863281 233.109375 368.765625 C 228.472656 376.296875 223.832031 383.832031 219.1875 391.355469 C 219.597656 391.535156 219.960938 391.78125 220.292969 392.0625 C 224.929688 384.546875 229.5625 377.027344 234.199219 369.507812 " fill-opacity="1" fill-rule="nonzero"/><path fill="#ffffff" d="M 169.890625 387.402344 C 170.164062 387.683594 170.398438 387.996094 170.605469 388.335938 C 181.316406 379.964844 192.03125 371.59375 202.746094 363.222656 C 202.476562 362.929688 202.230469 362.628906 202.015625 362.292969 C 191.304688 370.660156 180.601562 379.03125 169.890625 387.402344 " fill-opacity="1" fill-rule="nonzero"/><path fill="#ffffff" d="M 256.011719 412.089844 C 256.050781 411.554688 256.257812 411.074219 256.589844 410.691406 C 244.976562 405.898438 233.355469 401.109375 221.746094 396.316406 C 221.632812 396.824219 221.433594 397.300781 221.160156 397.722656 C 232.78125 402.511719 244.394531 407.300781 256.011719 412.089844 " fill-opacity="1" fill-rule="nonzero"/><path fill="#ffffff" d="M 281.484375 394.160156 C 290.394531 398.804688 299.304688 403.453125 308.214844 408.101562 C 308.367188 407.632812 308.589844 407.207031 308.878906 406.824219 C 299.644531 402.011719 290.410156 397.195312 281.179688 392.382812 L 281.253906 392.539062 C 281.332031 393.078125 281.402344 393.621094 281.484375 394.160156 " fill-opacity="1" fill-rule="nonzero"/><path fill="#ffffff" d="M 233.300781 369.039062 C 233.601562 369.199219 233.898438 369.351562 234.199219 369.507812 C 249.304688 377.382812 264.410156 385.261719 279.523438 393.136719 L 279.503906 393.011719 C 279.425781 392.472656 280.207031 392.109375 280.75 392.164062 C 265.484375 384.203125 250.21875 376.242188 234.949219 368.285156 L 234.675781 368.144531 C 234.347656 367.964844 233.640625 368.183594 233.296875 368.472656 C 233.179688 368.566406 233.121094 368.667969 233.109375 368.765625 C 233.105469 368.863281 233.148438 368.960938 233.300781 369.039062 " fill-opacity="1" fill-rule="nonzero"/><path fill="#ffffff" d="M 345.777344 388.742188 C 345.792969 388.367188 345.902344 388.019531 346.085938 387.722656 C 327.214844 382.097656 308.34375 376.480469 289.464844 370.867188 C 289.453125 371.238281 289.339844 371.585938 289.160156 371.886719 C 308.035156 377.511719 326.90625 383.125 345.777344 388.742188 " fill-opacity="1" fill-rule="nonzero"/><path fill="#ffffff" d="M 347.5625 390.96875 C 350.796875 403.488281 354.027344 416.003906 357.253906 428.53125 C 357.628906 428.222656 358.105469 428.03125 358.625 428.03125 C 358.757812 428.03125 358.882812 428.046875 359.011719 428.070312 C 355.785156 415.554688 352.550781 403.035156 349.324219 390.519531 C 348.949219 390.824219 348.476562 391.007812 347.953125 391.007812 C 347.820312 391.007812 347.691406 390.996094 347.5625 390.96875 " fill-opacity="1" fill-rule="nonzero"/><path fill="#ffffff" d="M 279.503906 393.011719 L 279.523438 393.136719 C 281.621094 408.015625 283.714844 422.894531 285.8125 437.765625 C 286.277344 437.601562 286.765625 437.492188 287.289062 437.492188 L 287.59375 437.527344 C 285.554688 423.070312 283.519531 408.609375 281.484375 394.160156 C 281.402344 393.621094 281.332031 393.078125 281.253906 392.539062 L 281.179688 392.382812 C 281.09375 392.25 280.941406 392.183594 280.75 392.164062 C 280.207031 392.109375 279.425781 392.472656 279.503906 393.011719 " fill-opacity="1" fill-rule="nonzero"/><path fill="#ffffff" d="M 312.214844 413.796875 C 313.878906 422.996094 315.535156 432.203125 317.195312 441.402344 C 317.941406 441.089844 319.128906 441.652344 318.203125 442.261719 C 317.949219 442.429688 317.695312 442.59375 317.441406 442.761719 C 319.109375 452.007812 320.777344 461.257812 322.445312 470.5 C 322.800781 470.257812 323.226562 470.109375 323.691406 470.109375 C 323.875 470.109375 324.050781 470.144531 324.222656 470.183594 C 320.816406 451.285156 317.40625 432.382812 314 413.484375 C 313.492188 413.695312 312.9375 413.8125 312.351562 413.8125 L 312.214844 413.796875 " fill-opacity="1" fill-rule="nonzero"/><path fill="#ffffff" d="M 318.203125 442.261719 C 319.128906 441.652344 317.941406 441.089844 317.195312 441.402344 L 317.042969 441.472656 C 304.015625 450.050781 290.992188 458.625 277.960938 467.214844 C 278.058594 467.699219 278.195312 468.121094 278.363281 468.507812 C 291.390625 459.925781 304.417969 451.347656 317.441406 442.761719 C 317.695312 442.59375 317.949219 442.429688 318.203125 442.261719 " fill-opacity="1" fill-rule="nonzero"/><path fill="#ffffff" d="M 213.140625 395.652344 C 193.125 398.226562 173.113281 400.804688 153.097656 403.378906 C 153.152344 403.570312 153.199219 403.761719 153.257812 403.945312 C 173.242188 401.371094 193.222656 398.796875 213.199219 396.226562 C 213.164062 396.039062 213.152344 395.84375 213.140625 395.652344 " fill-opacity="1" fill-rule="nonzero"/><path fill="#ffffff" d="M 255.992188 412.261719 C 255.992188 413.605469 257.082031 414.691406 258.421875 414.691406 C 259.757812 414.691406 260.84375 413.605469 260.84375 412.261719 C 260.84375 410.925781 259.757812 409.835938 258.421875 409.835938 C 257.683594 409.835938 257.03125 410.171875 256.589844 410.691406 C 256.257812 411.074219 256.050781 411.554688 256.011719 412.089844 L 255.992188 412.261719 " fill-opacity="1" fill-rule="nonzero"/><path fill="#ffffff" d="M 212.570312 353.003906 C 211.328125 351.941406 209.71875 351.292969 207.957031 351.292969 C 204.03125 351.292969 200.847656 354.476562 200.847656 358.402344 C 200.847656 359.839844 201.277344 361.175781 202.015625 362.292969 C 202.230469 362.628906 202.476562 362.929688 202.746094 363.222656 C 204.042969 364.625 205.890625 365.507812 207.957031 365.507812 C 211.878906 365.507812 215.058594 362.328125 215.058594 358.402344 C 215.058594 356.636719 214.410156 355.023438 213.34375 353.78125 C 213.109375 353.503906 212.847656 353.246094 212.570312 353.003906 " fill-opacity="1" fill-rule="nonzero"/><path fill="#ffffff" d="M 285.8125 437.765625 C 284.132812 438.375 282.925781 439.96875 282.925781 441.859375 C 282.925781 444.273438 284.878906 446.238281 287.289062 446.238281 C 289.710938 446.238281 291.664062 444.273438 291.664062 441.859375 C 291.664062 439.554688 289.867188 437.679688 287.59375 437.527344 L 287.289062 437.492188 C 286.765625 437.492188 286.277344 437.601562 285.8125 437.765625 " fill-opacity="1" fill-rule="nonzero"/><path fill="#ffffff" d="M 217.480469 399.753906 C 219.03125 399.753906 220.386719 398.9375 221.160156 397.722656 C 221.433594 397.300781 221.632812 396.824219 221.746094 396.316406 C 221.808594 396.015625 221.847656 395.703125 221.847656 395.382812 C 221.847656 394.046875 221.234375 392.863281 220.292969 392.0625 C 219.960938 391.78125 219.597656 391.535156 219.1875 391.355469 C 218.664062 391.136719 218.085938 391.007812 217.480469 391.007812 C 215.074219 391.007812 213.113281 392.96875 213.113281 395.382812 L 213.140625 395.652344 C 213.152344 395.84375 213.164062 396.039062 213.199219 396.226562 C 213.589844 398.238281 215.363281 399.753906 217.480469 399.753906 " fill-opacity="1" fill-rule="nonzero"/><path fill="#ffffff" d="M 307.984375 409.445312 C 307.984375 411.808594 309.871094 413.722656 312.214844 413.796875 L 312.351562 413.8125 C 312.9375 413.8125 313.492188 413.695312 314 413.484375 C 315.59375 412.835938 316.71875 411.273438 316.71875 409.445312 C 316.71875 407.03125 314.761719 405.078125 312.351562 405.078125 C 310.929688 405.078125 309.671875 405.769531 308.878906 406.824219 C 308.589844 407.207031 308.367188 407.632812 308.214844 408.101562 C 308.078125 408.527344 307.984375 408.972656 307.984375 409.445312 " fill-opacity="1" fill-rule="nonzero"/><path fill="#ffffff" d="M 287.675781 368.628906 C 287.546875 368.609375 287.425781 368.59375 287.289062 368.59375 C 286.089844 368.59375 285.113281 369.570312 285.113281 370.773438 C 285.113281 371.980469 286.089844 372.960938 287.289062 372.960938 C 288.09375 372.960938 288.785156 372.523438 289.160156 371.886719 C 289.339844 371.585938 289.453125 371.238281 289.464844 370.867188 L 289.476562 370.773438 C 289.476562 370.203125 289.25 369.6875 288.898438 369.300781 C 288.578125 368.957031 288.15625 368.71875 287.675781 368.628906 " fill-opacity="1" fill-rule="nonzero"/><path fill="#ffffff" d="M 290.453125 337.238281 C 290.453125 341.660156 294.035156 345.242188 298.457031 345.242188 C 302.875 345.242188 306.464844 341.660156 306.464844 337.238281 C 306.464844 333.105469 303.339844 329.710938 299.328125 329.28125 C 299.042969 329.25 298.75 329.230469 298.457031 329.230469 C 298.160156 329.230469 297.867188 329.25 297.582031 329.28125 C 294.09375 329.65625 291.285156 332.273438 290.609375 335.652344 C 290.535156 336.015625 290.496094 336.386719 290.476562 336.761719 C 290.46875 336.921875 290.453125 337.078125 290.453125 337.238281 " fill-opacity="1" fill-rule="nonzero"/><path fill="#ffffff" d="M 345.769531 388.835938 C 345.769531 389.910156 346.542969 390.792969 347.5625 390.96875 C 347.691406 390.996094 347.820312 391.007812 347.953125 391.007812 C 348.476562 391.007812 348.949219 390.824219 349.324219 390.519531 C 349.816406 390.121094 350.136719 389.515625 350.136719 388.835938 C 350.136719 387.628906 349.160156 386.652344 347.953125 386.652344 C 347.15625 386.652344 346.464844 387.082031 346.085938 387.722656 C 345.902344 388.019531 345.792969 388.367188 345.777344 388.742188 L 345.769531 388.835938 " fill-opacity="1" fill-rule="nonzero"/><path fill="#ffffff" d="M 322.445312 470.5 C 321.882812 470.898438 321.507812 471.550781 321.507812 472.296875 C 321.507812 473.5 322.484375 474.480469 323.691406 474.480469 C 324.898438 474.480469 325.875 473.5 325.875 472.296875 C 325.875 471.273438 325.167969 470.421875 324.222656 470.183594 C 324.050781 470.144531 323.875 470.109375 323.691406 470.109375 C 323.226562 470.109375 322.800781 470.257812 322.445312 470.5 " fill-opacity="1" fill-rule="nonzero"/><path fill="#ffffff" d="M 357.253906 428.53125 C 356.765625 428.929688 356.445312 429.535156 356.445312 430.214844 C 356.445312 431.421875 357.421875 432.398438 358.625 432.398438 C 359.832031 432.398438 360.8125 431.421875 360.8125 430.214844 C 360.8125 429.140625 360.03125 428.253906 359.011719 428.070312 C 358.882812 428.046875 358.757812 428.03125 358.625 428.03125 C 358.105469 428.03125 357.628906 428.222656 357.253906 428.53125 " fill-opacity="1" fill-rule="nonzero"/><path fill="#ffffff" d="M 129.179688 350.609375 C 127.769531 351.230469 126.773438 352.636719 126.773438 354.285156 C 126.773438 356.511719 128.578125 358.308594 130.796875 358.308594 C 133.015625 358.308594 134.820312 356.511719 134.820312 354.285156 C 134.820312 352.121094 133.101562 350.375 130.96875 350.285156 L 130.796875 350.265625 C 130.222656 350.265625 129.675781 350.394531 129.179688 350.609375 " fill-opacity="1" fill-rule="nonzero"/><path fill="#ffffff" d="M 179.925781 305.882812 C 179.925781 304.675781 178.949219 303.699219 177.742188 303.699219 C 176.542969 303.699219 175.558594 304.675781 175.558594 305.882812 C 175.558594 306.496094 175.816406 307.050781 176.230469 307.449219 C 176.582031 307.792969 177.046875 308.003906 177.5625 308.046875 L 177.742188 308.0625 C 178.414062 308.0625 179.007812 307.753906 179.402344 307.277344 C 179.703125 306.929688 179.882812 306.488281 179.914062 305.996094 L 179.925781 305.882812 " fill-opacity="1" fill-rule="nonzero"/><path fill="#ffffff" d="M 339.226562 305.980469 C 339.28125 308.347656 341.203125 310.25 343.585938 310.25 C 346 310.25 347.953125 308.292969 347.953125 305.882812 C 347.953125 303.46875 346 301.515625 343.585938 301.515625 C 341.484375 301.515625 339.734375 303 339.316406 304.972656 C 339.25 305.265625 339.21875 305.570312 339.21875 305.882812 L 339.226562 305.980469 " fill-opacity="1" fill-rule="nonzero"/><path fill="#ffffff" d="M 341.519531 349.425781 C 341.960938 351.375 343.6875 352.828125 345.769531 352.828125 C 348.183594 352.828125 350.136719 350.875 350.136719 348.460938 C 350.136719 346.054688 348.183594 344.09375 345.769531 344.09375 C 343.402344 344.09375 341.488281 345.988281 341.414062 348.328125 L 341.402344 348.460938 C 341.402344 348.792969 341.445312 349.117188 341.519531 349.425781 " fill-opacity="1" fill-rule="nonzero"/><path fill="#ffffff" d="M 234.316406 332.796875 C 235.078125 333.390625 236.023438 333.761719 237.070312 333.761719 C 239.15625 333.761719 240.898438 332.332031 241.398438 330.398438 C 241.492188 330.039062 241.554688 329.675781 241.554688 329.292969 L 241.554688 329.269531 C 241.554688 326.796875 239.542969 324.785156 237.070312 324.785156 C 235.417969 324.785156 233.992188 325.6875 233.214844 327.011719 C 232.984375 327.40625 232.800781 327.832031 232.699219 328.289062 C 232.625 328.609375 232.582031 328.9375 232.582031 329.269531 C 232.582031 330.316406 232.949219 331.261719 233.546875 332.027344 C 233.773438 332.3125 234.027344 332.574219 234.316406 332.796875 " fill-opacity="1" fill-rule="nonzero"/><path fill="#ffffff" d="M 166.21875 385.863281 C 163.371094 385.863281 161.066406 388.171875 161.066406 391.007812 C 161.066406 393.863281 163.371094 396.171875 166.21875 396.171875 C 169.066406 396.171875 171.375 393.863281 171.375 391.007812 C 171.375 390.027344 171.085938 389.113281 170.605469 388.335938 C 170.398438 387.996094 170.164062 387.683594 169.890625 387.402344 C 168.953125 386.449219 167.65625 385.863281 166.21875 385.863281 " fill-opacity="1" fill-rule="nonzero"/><path fill="#ffffff" d="M 224.214844 295.78125 C 224.523438 295.921875 224.863281 296.007812 225.226562 296.007812 C 226.5625 296.007812 227.648438 294.921875 227.648438 293.578125 C 227.648438 292.238281 226.5625 291.152344 225.226562 291.152344 C 223.878906 291.152344 222.796875 292.238281 222.796875 293.578125 C 222.796875 294.132812 222.988281 294.632812 223.292969 295.035156 C 223.53125 295.351562 223.847656 295.613281 224.214844 295.78125 " fill-opacity="1" fill-rule="nonzero"/><path fill="#ffffff" d="M 254.757812 356.71875 C 254.757812 360.082031 257.484375 362.800781 260.84375 362.800781 C 264.207031 362.800781 266.933594 360.082031 266.933594 356.71875 L 266.929688 356.675781 C 266.925781 356.296875 266.882812 355.933594 266.816406 355.574219 C 266.28125 352.753906 263.816406 350.625 260.84375 350.625 C 258.605469 350.625 256.667969 351.847656 255.613281 353.652344 C 255.402344 354.003906 255.234375 354.382812 255.101562 354.777344 C 254.898438 355.390625 254.757812 356.039062 254.757812 356.71875 " fill-opacity="1" fill-rule="nonzero"/><path fill="#ffffff" d="M 299.328125 303.894531 C 300.011719 303.632812 300.542969 303.066406 300.761719 302.359375 C 300.835938 302.128906 300.882812 301.890625 300.882812 301.632812 L 300.855469 301.355469 C 300.71875 300.148438 299.695312 299.210938 298.457031 299.210938 C 297.117188 299.210938 296.03125 300.292969 296.03125 301.632812 C 296.03125 302.664062 296.675781 303.542969 297.582031 303.890625 C 297.851562 304 298.148438 304.0625 298.457031 304.0625 C 298.765625 304.0625 299.054688 304 299.328125 303.894531 " fill-opacity="1" fill-rule="nonzero"/><path fill="#ffffff" d="M 165.007812 327.109375 C 162.871094 327.109375 160.988281 328.117188 159.746094 329.65625 C 159.453125 330.027344 159.191406 330.417969 158.976562 330.839844 C 158.511719 331.769531 158.21875 332.796875 158.21875 333.902344 C 158.21875 337.65625 161.257812 340.699219 165.007812 340.699219 C 168.753906 340.699219 171.796875 337.65625 171.796875 333.902344 C 171.796875 331.417969 170.449219 329.265625 168.457031 328.082031 C 168.039062 327.835938 167.59375 327.636719 167.125 327.484375 C 166.453125 327.261719 165.753906 327.109375 165.007812 327.109375 " fill-opacity="1" fill-rule="nonzero"/><path fill="#ffffff" d="M 355.894531 230.398438 L 356.0625 230.414062 C 355.125 225.410156 354.183594 220.40625 353.242188 215.398438 C 352.898438 215.398438 352.554688 215.394531 352.210938 215.394531 C 352.082031 215.394531 351.960938 215.390625 351.839844 215.390625 C 351.691406 215.390625 351.542969 215.386719 351.398438 215.386719 C 352.359375 220.503906 353.320312 225.621094 354.28125 230.738281 C 354.777344 230.523438 355.320312 230.398438 355.894531 230.398438 " fill-opacity="1" fill-rule="nonzero"/><path fill="#ffffff" d="M 459.296875 249.640625 C 459 249.484375 458.703125 249.332031 458.402344 249.175781 C 458.246094 249.097656 458.207031 248.996094 458.210938 248.898438 C 453.570312 256.429688 448.929688 263.957031 444.289062 271.492188 C 444.695312 271.664062 445.058594 271.914062 445.394531 272.199219 C 450.027344 264.679688 454.664062 257.15625 459.296875 249.640625 " fill-opacity="1" fill-rule="nonzero"/><path fill="#ffffff" d="M 459.777344 248.277344 L 460.050781 248.417969 C 462.734375 244.0625 465.417969 239.703125 468.101562 235.351562 C 467.695312 235.195312 467.265625 235.058594 466.808594 234.957031 C 464 239.507812 461.199219 244.054688 458.398438 248.601562 C 458.742188 248.316406 459.441406 248.101562 459.777344 248.277344 " fill-opacity="1" fill-rule="nonzero"/><path fill="#ffffff" d="M 395.707031 268.46875 C 404.539062 261.5625 413.375 254.660156 422.207031 247.757812 C 421.707031 247.652344 421.21875 247.539062 420.730469 247.414062 C 412.152344 254.121094 403.570312 260.824219 394.988281 267.535156 C 395.265625 267.8125 395.5 268.128906 395.707031 268.46875 " fill-opacity="1" fill-rule="nonzero"/><path fill="#ffffff" d="M 446.257812 277.855469 C 451.316406 279.941406 456.371094 282.019531 461.425781 284.105469 C 461.296875 283.511719 461.1875 282.917969 461.089844 282.324219 C 456.339844 280.367188 451.589844 278.410156 446.839844 276.445312 C 446.734375 276.957031 446.53125 277.429688 446.257812 277.855469 " fill-opacity="1" fill-rule="nonzero"/><path fill="#ffffff" d="M 459.777344 248.277344 C 459.441406 248.101562 458.742188 248.316406 458.398438 248.601562 C 458.277344 248.699219 458.21875 248.800781 458.210938 248.898438 C 458.207031 248.996094 458.246094 249.097656 458.402344 249.175781 C 458.703125 249.332031 459 249.484375 459.296875 249.640625 C 462.714844 251.421875 466.136719 253.207031 469.558594 254.988281 C 469.78125 254.582031 469.996094 254.15625 470.207031 253.714844 C 466.820312 251.945312 463.4375 250.179688 460.050781 248.417969 L 459.777344 248.277344 " fill-opacity="1" fill-rule="nonzero"/><path fill="#ffffff" d="M 444.914062 355.449219 C 452.003906 359.019531 459.09375 362.597656 466.183594 366.171875 L 466.273438 366.019531 L 466.394531 365.792969 C 466.539062 365.527344 466.679688 365.261719 466.820312 364.992188 C 459.71875 361.410156 452.613281 357.832031 445.507812 354.25 C 445.363281 354.683594 445.171875 355.085938 444.914062 355.449219 " fill-opacity="1" fill-rule="nonzero"/><path fill="#ffffff" d="M 486.210938 376.265625 C 488.566406 377.449219 490.925781 378.644531 493.285156 379.832031 L 493.304688 379.792969 C 493.191406 379.292969 493.070312 378.75 492.945312 378.164062 C 490.679688 377.019531 488.414062 375.875 486.140625 374.734375 C 486.171875 375.261719 486.191406 375.769531 486.210938 376.265625 " fill-opacity="1" fill-rule="nonzero"/><path fill="#ffffff" d="M 445.738281 352.910156 C 445.738281 353.054688 445.707031 353.179688 445.691406 353.320312 C 458.601562 352.996094 471.507812 352.671875 484.414062 352.347656 C 484.140625 352.019531 483.867188 351.675781 483.589844 351.351562 C 470.949219 351.671875 458.308594 351.984375 445.671875 352.296875 C 445.703125 352.503906 445.738281 352.707031 445.738281 352.910156 " fill-opacity="1" fill-rule="nonzero"/><path fill="#ffffff" d="M 418.714844 388.75 L 418.632812 388.871094 L 418.851562 389.003906 C 418.773438 388.855469 418.714844 388.75 418.714844 388.75 " fill-opacity="1" fill-rule="nonzero"/><path fill="#ffffff" d="M 438.480469 356.164062 C 435.902344 360.320312 433.328125 364.476562 430.746094 368.628906 C 431.125 368.765625 431.503906 368.902344 431.878906 369.039062 C 432.386719 369.226562 430.820312 369.84375 430.4375 369.703125 L 430.148438 369.601562 C 429.464844 370.699219 428.785156 371.796875 428.101562 372.898438 C 428.316406 372.90625 428.535156 372.925781 428.753906 372.9375 L 428.921875 372.945312 C 429.210938 372.957031 429.5 372.972656 429.789062 372.980469 C 433.105469 367.640625 436.417969 362.296875 439.730469 356.953125 C 439.269531 356.769531 438.851562 356.492188 438.480469 356.164062 " fill-opacity="1" fill-rule="nonzero"/><path fill="#ffffff" d="M 431.878906 369.039062 C 431.503906 368.902344 431.125 368.765625 430.746094 368.628906 C 418.40625 364.128906 406.058594 359.632812 393.71875 355.128906 C 393.675781 355.515625 393.546875 355.878906 393.339844 356.1875 C 405.609375 360.660156 417.878906 365.128906 430.148438 369.601562 L 430.4375 369.703125 C 430.820312 369.84375 432.386719 369.226562 431.878906 369.039062 " fill-opacity="1" fill-rule="nonzero"/><path fill="#ffffff" d="M 439.472656 348.996094 C 431.859375 339.042969 424.253906 329.097656 416.644531 319.148438 C 416.246094 319.574219 415.777344 319.925781 415.253906 320.203125 C 422.859375 330.152344 430.476562 340.105469 438.085938 350.0625 C 438.46875 349.617188 438.9375 349.257812 439.472656 348.996094 " fill-opacity="1" fill-rule="nonzero"/><path fill="#ffffff" d="M 351.058594 325.726562 C 351.117188 325.910156 351.152344 326.101562 351.15625 326.300781 C 370.082031 323.140625 389.019531 319.980469 407.949219 316.820312 C 407.90625 316.632812 407.890625 316.4375 407.871094 316.246094 C 388.933594 319.40625 369.992188 322.5625 351.058594 325.726562 " fill-opacity="1" fill-rule="nonzero"/><path fill="#ffffff" d="M 373.972656 284.058594 C 374.003906 284.25 374.039062 284.433594 374.050781 284.632812 C 395.46875 281.875 416.882812 279.117188 438.296875 276.359375 C 438.265625 276.171875 438.253906 275.976562 438.238281 275.785156 C 416.816406 278.539062 395.390625 281.300781 373.972656 284.058594 " fill-opacity="1" fill-rule="nonzero"/><path fill="#ffffff" d="M 446.949219 275.507812 C 446.949219 274.179688 446.335938 272.996094 445.394531 272.199219 C 445.058594 271.914062 444.695312 271.664062 444.289062 271.492188 C 443.765625 271.265625 443.1875 271.140625 442.582031 271.140625 C 440.167969 271.140625 438.214844 273.101562 438.214844 275.507812 L 438.238281 275.785156 C 438.253906 275.976562 438.265625 276.171875 438.296875 276.359375 C 438.691406 278.371094 440.457031 279.886719 442.582031 279.886719 C 444.132812 279.886719 445.480469 279.070312 446.257812 277.855469 C 446.53125 277.429688 446.734375 276.957031 446.839844 276.445312 C 446.910156 276.148438 446.949219 275.832031 446.949219 275.507812 " fill-opacity="1" fill-rule="nonzero"/><path fill="#ffffff" d="M 441.371094 357.277344 C 442.832031 357.277344 444.121094 356.550781 444.914062 355.449219 C 445.171875 355.085938 445.363281 354.683594 445.507812 354.25 C 445.601562 353.953125 445.664062 353.644531 445.691406 353.320312 C 445.707031 353.179688 445.738281 353.054688 445.738281 352.910156 C 445.738281 352.707031 445.703125 352.503906 445.671875 352.296875 C 445.375 350.183594 443.566406 348.542969 441.371094 348.542969 C 440.683594 348.542969 440.046875 348.714844 439.472656 348.996094 C 438.9375 349.257812 438.46875 349.617188 438.085938 350.0625 C 437.421875 350.824219 437.003906 351.816406 437.003906 352.910156 C 437.003906 354.210938 437.582031 355.371094 438.480469 356.164062 C 438.851562 356.492188 439.269531 356.769531 439.730469 356.953125 C 440.238281 357.160156 440.789062 357.277344 441.371094 357.277344 " fill-opacity="1" fill-rule="nonzero"/><path fill="#ffffff" d="M 348.980469 324.179688 C 347.773438 324.179688 346.796875 325.164062 346.796875 326.371094 C 346.796875 327.578125 347.773438 328.542969 348.980469 328.542969 C 350.191406 328.542969 351.164062 327.578125 351.164062 326.371094 L 351.15625 326.300781 C 351.152344 326.101562 351.117188 325.910156 351.058594 325.726562 C 350.785156 324.835938 349.964844 324.179688 348.980469 324.179688 " fill-opacity="1" fill-rule="nonzero"/><path fill="#ffffff" d="M 414.859375 403.414062 C 414.980469 403.414062 415.097656 403.398438 415.214844 403.394531 C 415.457031 403.351562 415.703125 403.300781 415.925781 403.25 L 416.050781 403.222656 C 416.34375 403.164062 416.628906 403.101562 416.910156 403.035156 L 417.132812 402.976562 C 417.386719 402.917969 417.621094 402.855469 417.851562 402.796875 L 417.933594 402.777344 C 419.667969 402.023438 421.070312 400.660156 421.875 398.953125 C 421.910156 398.527344 421.914062 398.085938 421.871094 397.617188 L 421.839844 397.34375 C 421.785156 396.917969 421.710938 396.484375 421.621094 396.042969 L 421.589844 395.921875 C 421.109375 393.839844 420.207031 391.734375 419.539062 390.347656 L 419.527344 390.332031 L 419.503906 390.28125 C 419.21875 389.695312 418.988281 389.257812 418.851562 389.003906 L 418.632812 388.871094 C 418.5625 388.960938 418.453125 389.101562 418.296875 389.292969 C 418.210938 389.398438 418.101562 389.53125 417.984375 389.667969 L 417.972656 389.675781 C 417.867188 389.800781 417.75 389.933594 417.621094 390.070312 L 417.523438 390.175781 C 417.410156 390.296875 417.285156 390.425781 417.15625 390.550781 L 417.0625 390.65625 C 416.894531 390.816406 416.71875 390.984375 416.53125 391.15625 L 416.511719 391.171875 C 416.257812 391.402344 415.953125 391.636719 415.65625 391.867188 C 415.511719 391.984375 415.382812 392.101562 415.226562 392.222656 L 415.191406 392.242188 C 414.714844 392.589844 414.199219 392.917969 413.652344 393.210938 L 413.625 393.21875 C 413.375 393.355469 413.109375 393.476562 412.847656 393.589844 L 412.746094 393.632812 C 411.882812 393.992188 410.953125 394.234375 409.964844 394.296875 C 409.617188 394.316406 409.269531 394.3125 408.914062 394.28125 C 408.378906 394.242188 407.832031 394.140625 407.277344 393.96875 C 407.152344 394.511719 407.085938 395.070312 407.085938 395.652344 C 407.085938 399.941406 410.5625 403.414062 414.859375 403.414062 " fill-opacity="1" fill-rule="nonzero"/><path fill="#ffffff" d="M 492.402344 384.125 C 492.402344 384.910156 492.492188 385.671875 492.648438 386.40625 C 495.027344 385.789062 494.515625 385.148438 493.304688 379.792969 L 493.285156 379.832031 C 492.722656 381.144531 492.402344 382.597656 492.402344 384.125 " fill-opacity="1" fill-rule="nonzero"/><path fill="#ffffff" d="M 354.28125 230.738281 C 352.863281 231.363281 351.871094 232.769531 351.871094 234.414062 C 351.871094 236.640625 353.679688 238.441406 355.894531 238.441406 C 358.113281 238.441406 359.921875 236.640625 359.921875 234.414062 C 359.921875 232.253906 358.203125 230.507812 356.0625 230.414062 L 355.894531 230.398438 C 355.320312 230.398438 354.777344 230.523438 354.28125 230.738281 " fill-opacity="1" fill-rule="nonzero"/><path fill="#ffffff" d="M 391.320312 265.992188 C 388.46875 265.992188 386.164062 268.300781 386.164062 271.140625 C 386.164062 274 388.46875 276.304688 391.320312 276.304688 C 394.164062 276.304688 396.476562 274 396.476562 271.140625 C 396.476562 270.160156 396.1875 269.25 395.707031 268.46875 C 395.5 268.128906 395.265625 267.8125 394.988281 267.535156 C 394.050781 266.585938 392.757812 265.992188 391.320312 265.992188 " fill-opacity="1" fill-rule="nonzero"/><path fill="#ffffff" d="M 416.644531 319.148438 C 417.484375 318.234375 418.003906 317.03125 418.003906 315.703125 C 418.003906 312.890625 415.726562 310.605469 412.910156 310.605469 C 410.097656 310.605469 407.816406 312.890625 407.816406 315.703125 C 407.816406 315.890625 407.851562 316.066406 407.871094 316.246094 C 407.890625 316.4375 407.90625 316.632812 407.949219 316.820312 C 408.460938 319.09375 410.484375 320.796875 412.910156 320.796875 C 413.761719 320.796875 414.546875 320.566406 415.253906 320.203125 C 415.777344 319.925781 416.246094 319.574219 416.644531 319.148438 " fill-opacity="1" fill-rule="nonzero"/><path fill="#ffffff" d="M 389.746094 220.792969 C 387.921875 219.570312 386.097656 218.476562 384.316406 217.542969 C 385.449219 219.410156 387.4375 220.667969 389.746094 220.792969 " fill-opacity="1" fill-rule="nonzero"/><path fill="#ffffff" d="M 365.808594 277.121094 C 361.234375 277.121094 357.519531 280.828125 357.519531 285.402344 C 357.519531 289.976562 361.234375 293.683594 365.808594 293.683594 C 370.382812 293.683594 374.089844 289.976562 374.089844 285.402344 C 374.089844 285.140625 374.078125 284.886719 374.050781 284.632812 C 374.039062 284.433594 374.003906 284.25 373.972656 284.058594 C 373.332031 280.121094 369.921875 277.121094 365.808594 277.121094 " fill-opacity="1" fill-rule="nonzero"/><path fill="#ffffff" d="M 393.742188 354.855469 C 393.742188 353.519531 392.660156 352.429688 391.320312 352.429688 C 389.984375 352.429688 388.890625 353.519531 388.890625 354.855469 C 388.890625 356.195312 389.984375 357.277344 391.320312 357.277344 C 392.164062 357.277344 392.910156 356.847656 393.339844 356.1875 C 393.546875 355.878906 393.675781 355.515625 393.71875 355.128906 L 393.742188 354.855469 " fill-opacity="1" fill-rule="nonzero"/><path fill="#ffffff" d="M 374.082031 529.246094 C 374.003906 528.730469 375.160156 527.628906 375.203125 527.902344 C 375.265625 528.269531 375.316406 528.636719 375.371094 529.007812 C 378.625 528.085938 381.882812 527.15625 385.136719 526.234375 C 384.984375 525.847656 384.867188 525.453125 384.796875 525.046875 C 380.046875 526.394531 375.296875 527.746094 370.546875 529.09375 C 370.324219 529.476562 370.121094 529.855469 369.964844 530.199219 L 369.910156 530.320312 L 369.8125 530.585938 C 371.246094 530.179688 372.671875 529.773438 374.101562 529.363281 L 374.082031 529.246094 " fill-opacity="1" fill-rule="nonzero"/><path fill="#ffffff" d="M 399.835938 488.679688 C 396.117188 491.089844 392.402344 493.5 388.683594 495.90625 C 389.105469 496.097656 389.46875 496.296875 389.804688 496.511719 C 393.351562 494.210938 396.902344 491.910156 400.449219 489.613281 C 400.226562 489.3125 400.019531 489.003906 399.835938 488.679688 " fill-opacity="1" fill-rule="nonzero"/><path fill="#ffffff" d="M 395.378906 520.027344 C 396.855469 518.503906 398.332031 516.984375 399.808594 515.464844 C 399.851562 515.179688 399.898438 514.898438 399.945312 514.609375 C 400 514.265625 400.058594 513.914062 400.117188 513.558594 C 398.273438 515.457031 396.425781 517.363281 394.582031 519.261719 C 394.867188 519.492188 395.132812 519.746094 395.378906 520.027344 " fill-opacity="1" fill-rule="nonzero"/><path fill="#ffffff" d="M 385.667969 456.09375 C 385.832031 456.285156 385.945312 456.5 386.042969 456.726562 C 393.734375 451.347656 401.421875 445.976562 409.117188 440.609375 C 409.015625 440.300781 408.882812 439.976562 408.734375 439.640625 C 400.976562 445.058594 393.21875 450.476562 385.464844 455.898438 L 385.667969 456.09375 " fill-opacity="1" fill-rule="nonzero"/><path fill="#ffffff" d="M 401.667969 478.707031 C 401.894531 478.515625 402.125 478.34375 402.363281 478.179688 C 396.890625 471.726562 391.414062 465.273438 385.941406 458.824219 C 385.800781 459.078125 385.617188 459.3125 385.386719 459.515625 C 385.144531 459.714844 384.882812 459.859375 384.605469 459.953125 C 390.078125 466.402344 395.554688 472.855469 401.03125 479.308594 C 401.230469 479.097656 401.441406 478.898438 401.667969 478.707031 " fill-opacity="1" fill-rule="nonzero"/><path fill="#ffffff" d="M 375.203125 527.902344 C 375.160156 527.628906 374.003906 528.730469 374.082031 529.246094 L 374.101562 529.363281 C 374.21875 530.125 374.332031 530.882812 374.449219 531.640625 C 374.773438 531.535156 375.09375 531.433594 375.40625 531.347656 L 375.71875 531.273438 C 375.601562 530.519531 375.488281 529.761719 375.371094 529.007812 C 375.316406 528.636719 375.265625 528.269531 375.203125 527.902344 " fill-opacity="1" fill-rule="nonzero"/><path fill="#ffffff" d="M 402.363281 478.179688 C 402.125 478.34375 401.894531 478.515625 401.667969 478.707031 C 401.441406 478.898438 401.230469 479.097656 401.03125 479.308594 C 398.621094 481.855469 398.164062 485.664062 399.835938 488.679688 C 400.019531 489.003906 400.226562 489.3125 400.449219 489.613281 C 400.550781 489.742188 400.636719 489.867188 400.742188 489.992188 C 401.671875 491.085938 402.835938 491.867188 404.097656 492.328125 L 404.132812 492.15625 C 404.195312 491.835938 404.265625 491.523438 404.332031 491.203125 C 404.476562 490.53125 404.621094 489.863281 404.765625 489.203125 C 404.832031 488.882812 404.90625 488.5625 404.976562 488.246094 C 405.152344 487.449219 405.328125 486.660156 405.503906 485.882812 C 405.539062 485.726562 405.574219 485.574219 405.609375 485.417969 C 405.820312 484.519531 406.027344 483.640625 406.230469 482.769531 C 406.304688 482.46875 406.375 482.175781 406.449219 481.878906 C 406.59375 481.273438 406.742188 480.667969 406.890625 480.070312 C 406.96875 479.769531 407.042969 479.464844 407.113281 479.167969 C 407.296875 478.464844 407.472656 477.773438 407.648438 477.101562 L 407.714844 476.855469 C 405.875 476.660156 403.972656 477.085938 402.363281 478.179688 " fill-opacity="1" fill-rule="nonzero"/><path fill="#ffffff" d="M 386.128906 527.9375 C 388.300781 530.5 392.140625 530.808594 394.699219 528.632812 C 397.265625 526.460938 397.585938 522.621094 395.410156 520.0625 L 395.378906 520.027344 C 395.132812 519.746094 394.867188 519.492188 394.582031 519.261719 C 392.351562 517.460938 389.089844 517.429688 386.824219 519.355469 C 385.117188 520.800781 384.433594 522.984375 384.796875 525.046875 C 384.867188 525.453125 384.984375 525.847656 385.136719 526.234375 C 385.371094 526.835938 385.6875 527.417969 386.128906 527.9375 " fill-opacity="1" fill-rule="nonzero"/><path fill="#ffffff" d="M 385.941406 458.824219 C 386.289062 458.179688 386.328125 457.410156 386.042969 456.726562 C 385.945312 456.5 385.832031 456.285156 385.667969 456.09375 L 385.464844 455.898438 C 384.574219 455.070312 383.195312 455.011719 382.246094 455.816406 C 381.226562 456.683594 381.097656 458.210938 381.964844 459.234375 C 382.632812 460.019531 383.6875 460.269531 384.605469 459.953125 C 384.882812 459.859375 385.144531 459.714844 385.386719 459.515625 C 385.617188 459.3125 385.800781 459.078125 385.941406 458.824219 " fill-opacity="1" fill-rule="nonzero"/></svg>