<?xml version="1.0" encoding="UTF-8"?><svg id="Capa_1" xmlns="http://www.w3.org/2000/svg" viewBox="0 0 1371.41 700.03"><defs><style>.cls-1{fill:#5477f2;}.cls-2{fill:#4064e3;}.cls-3{fill:#4164e3;}.cls-4{fill:#3354cc;}</style></defs><g id="Capa_1-2"><rect class="cls-1" x=".37" y="0" width="1371.04" height="700"/></g><path class="cls-4" d="m825.26,700s254.52-248.86,257.21-253.74c0,0,73.73,141.99,163.7,117.87l-123.35,135.88"/><polygon class="cls-2" points="2.18 634.69 492.28 143.83 492.28 1 347.22 146.29 0 146.29 2.18 634.69"/><polygon class="cls-4" points="515.59 144.28 664.92 144.28 664.92 2 515.59 144.28"/><polyline class="cls-3" points="968.9 126.1 407.23 700 141.69 699.37 854.45 7.29"/><path class="cls-2" d="m1370.39,357.6C941.87,367.19,831.76,0,831.76,0h538.63v231.97"/><path class="cls-4" d="m1368.99,219.63C1081.33,224.07,998.51,2,998.51,2h371.97l.93,217.63h-2.42Z"/><polygon class="cls-4" points="1370.86 700.03 1266.33 700.03 1266.33 594.96 1371.4 594.96 1371.4 700.03 1370.86 700.03"/><circle class="cls-2" cx="1173.89" cy="493.84" r="102.86"/><rect class="cls-2" x=".37" width="92.65" height="485.95"/><path class="cls-4" d="m.37,2v344.54L288.83,60.08S134.21,136.87.37,2Z"/><path class="cls-2" d="m302.44,2c-1.91,81.5-68.57,146.98-150.53,146.98S3.28,83.5,1.37,2"/></svg>