<svg xmlns="http://www.w3.org/2000/svg" xmlns:xlink="http://www.w3.org/1999/xlink" width="1024" zoomAndPan="magnify" viewBox="0 0 768 767.999994" height="1024" preserveAspectRatio="xMidYMid meet" version="1.0"><defs><g/></defs><g fill="#3b43f2" fill-opacity="1"><g transform="translate(86.028412, 517.587288)"><g><path d="M 24.28125 -27.359375 C 24.28125 -36.222656 27.265625 -43.414062 33.234375 -48.9375 C 39.210938 -54.457031 46.695312 -57.21875 55.6875 -57.21875 C 64.800781 -57.21875 72.34375 -54.457031 78.3125 -48.9375 C 84.289062 -43.414062 87.28125 -36.222656 87.28125 -27.359375 C 87.28125 -18.617188 84.328125 -11.519531 78.421875 -6.0625 C 72.515625 -0.601562 64.9375 2.125 55.6875 2.125 C 46.5625 2.125 39.046875 -0.601562 33.140625 -6.0625 C 27.234375 -11.519531 24.28125 -18.617188 24.28125 -27.359375 Z M 24.28125 -27.359375 "/></g></g><g transform="translate(200.669418, 517.587288)"><g><path d="M 245.265625 -93.453125 C 243.085938 -63.265625 231.945312 -39.5 211.84375 -22.15625 C 191.738281 -4.8125 165.242188 3.859375 132.359375 3.859375 C 96.398438 3.859375 68.109375 -8.242188 47.484375 -32.453125 C 26.867188 -56.671875 16.5625 -89.910156 16.5625 -132.171875 L 16.5625 -149.328125 C 16.5625 -176.296875 21.3125 -200.054688 30.8125 -220.609375 C 40.320312 -241.160156 53.910156 -256.925781 71.578125 -267.90625 C 89.242188 -278.894531 109.765625 -284.390625 133.140625 -284.390625 C 165.503906 -284.390625 191.578125 -275.71875 211.359375 -258.375 C 231.140625 -241.03125 242.570312 -216.6875 245.65625 -185.34375 L 187.859375 -185.34375 C 186.441406 -203.457031 181.394531 -216.59375 172.71875 -224.75 C 164.050781 -232.90625 150.859375 -236.984375 133.140625 -236.984375 C 113.867188 -236.984375 99.445312 -230.078125 89.875 -216.265625 C 80.3125 -202.460938 75.398438 -181.046875 75.140625 -152.015625 L 75.140625 -130.828125 C 75.140625 -100.515625 79.726562 -78.351562 88.90625 -64.34375 C 98.09375 -50.34375 112.578125 -43.34375 132.359375 -43.34375 C 150.210938 -43.34375 163.539062 -47.421875 172.34375 -55.578125 C 181.144531 -63.742188 186.1875 -76.367188 187.46875 -93.453125 Z M 245.265625 -93.453125 "/></g></g><g transform="translate(458.852532, 517.587288)"><g><path d="M 12.71875 -106.15625 C 12.71875 -126.84375 16.695312 -145.273438 24.65625 -161.453125 C 32.625 -177.640625 44.085938 -190.164062 59.046875 -199.03125 C 74.015625 -207.894531 91.390625 -212.328125 111.171875 -212.328125 C 139.304688 -212.328125 162.265625 -203.71875 180.046875 -186.5 C 197.835938 -169.289062 207.765625 -145.914062 209.828125 -116.375 L 210.203125 -102.109375 C 210.203125 -70.128906 201.273438 -44.472656 183.421875 -25.140625 C 165.566406 -5.804688 141.609375 3.859375 111.546875 3.859375 C 81.492188 3.859375 57.507812 -5.773438 39.59375 -25.046875 C 21.675781 -44.316406 12.71875 -70.519531 12.71875 -103.65625 Z M 68.40625 -102.109375 C 68.40625 -82.328125 72.128906 -67.203125 79.578125 -56.734375 C 87.023438 -46.273438 97.6875 -41.046875 111.5625 -41.046875 C 125.039062 -41.046875 135.570312 -46.210938 143.15625 -56.546875 C 150.738281 -66.890625 154.53125 -83.425781 154.53125 -106.15625 C 154.53125 -125.550781 150.738281 -140.578125 143.15625 -151.234375 C 135.570312 -161.898438 124.910156 -167.234375 111.171875 -167.234375 C 97.554688 -167.234375 87.023438 -161.9375 79.578125 -151.34375 C 72.128906 -140.75 68.40625 -124.335938 68.40625 -102.109375 Z M 68.40625 -102.109375 "/></g></g></g></svg>