<svg xmlns="http://www.w3.org/2000/svg" xmlns:xlink="http://www.w3.org/1999/xlink" width="1024" zoomAndPan="magnify" viewBox="0 0 768 767.999994" height="1024" preserveAspectRatio="xMidYMid meet" version="1.0"><defs><clipPath id="e04379ecc1"><path d="M 142.71875 177 L 625.753906 177 L 625.753906 365 L 142.71875 365 Z M 142.71875 177 " clip-rule="nonzero"/></clipPath><clipPath id="296c1cf1d8"><path d="M 142.71875 403 L 625.753906 403 L 625.753906 591 L 142.71875 591 Z M 142.71875 403 " clip-rule="nonzero"/></clipPath><clipPath id="76a7e67e81"><path d="M 142.71875 177 L 625.753906 177 L 625.753906 365 L 142.71875 365 Z M 142.71875 177 " clip-rule="nonzero"/></clipPath><clipPath id="3846d70d3a"><path d="M 142.71875 403 L 625.753906 403 L 625.753906 591 L 142.71875 591 Z M 142.71875 403 " clip-rule="nonzero"/></clipPath></defs><g clip-path="url(#e04379ecc1)"><path fill="#000000" d="M 567.632812 177.113281 L 200.835938 177.113281 C 168.738281 177.113281 142.71875 203.085938 142.71875 235.121094 L 142.71875 306.191406 C 142.71875 338.070312 168.738281 364.199219 200.835938 364.199219 L 567.632812 364.199219 C 599.734375 364.199219 625.753906 338.070312 625.753906 306.191406 L 625.753906 235.121094 C 625.753906 203.085938 599.734375 177.113281 567.632812 177.113281 Z M 210.652344 270.578125 C 210.652344 257.824219 221.09375 247.25 234.027344 247.25 L 259.738281 247.25 C 272.671875 247.25 283.109375 257.824219 283.109375 270.578125 C 283.109375 283.484375 272.671875 293.90625 259.738281 293.90625 L 234.027344 293.90625 C 221.09375 293.90625 210.652344 283.484375 210.652344 270.578125 Z M 534.445312 293.90625 L 337.179688 293.90625 C 324.246094 293.90625 313.804688 283.484375 313.804688 270.578125 C 313.804688 257.824219 324.246094 247.25 337.179688 247.25 L 534.445312 247.25 C 547.378906 247.25 557.816406 257.824219 557.816406 270.578125 C 557.816406 283.484375 547.378906 293.90625 534.445312 293.90625 Z M 534.445312 293.90625 " fill-opacity="1" fill-rule="nonzero"/></g><g clip-path="url(#296c1cf1d8)"><path fill="#000000" d="M 567.632812 403.386719 L 200.835938 403.386719 C 168.738281 403.386719 142.71875 429.515625 142.71875 461.394531 L 142.71875 532.464844 C 142.71875 564.5 168.738281 590.46875 200.835938 590.46875 L 567.632812 590.46875 C 599.734375 590.46875 625.753906 564.5 625.753906 532.464844 L 625.753906 461.394531 C 625.753906 429.515625 599.734375 403.386719 567.632812 403.386719 Z M 210.652344 497.007812 C 210.652344 484.097656 221.09375 473.679688 234.027344 473.679688 L 259.738281 473.679688 C 272.671875 473.679688 283.109375 484.097656 283.109375 497.007812 C 283.109375 509.757812 272.671875 520.332031 259.738281 520.332031 L 234.027344 520.332031 C 221.09375 520.332031 210.652344 509.757812 210.652344 497.007812 Z M 534.445312 520.332031 L 337.179688 520.332031 C 324.246094 520.332031 313.804688 509.757812 313.804688 497.007812 C 313.804688 484.097656 324.246094 473.679688 337.179688 473.679688 L 534.445312 473.679688 C 547.378906 473.679688 557.816406 484.097656 557.816406 497.007812 C 557.816406 509.757812 547.378906 520.332031 534.445312 520.332031 Z M 534.445312 520.332031 " fill-opacity="1" fill-rule="nonzero"/></g><g clip-path="url(#76a7e67e81)"><path fill="#3b43f2" d="M 567.214844 177.117188 L 200.78125 177.117188 C 168.710938 177.117188 142.71875 203.113281 142.71875 235.179688 L 142.71875 306.320312 C 142.71875 338.230469 168.710938 364.382812 200.78125 364.382812 L 567.214844 364.382812 C 599.28125 364.382812 625.277344 338.230469 625.277344 306.320312 L 625.277344 235.179688 C 625.277344 203.113281 599.28125 177.117188 567.214844 177.117188 Z M 210.585938 270.671875 C 210.585938 257.90625 221.015625 247.320312 233.9375 247.320312 L 259.621094 247.320312 C 272.542969 247.320312 282.96875 257.90625 282.96875 270.671875 C 282.96875 283.589844 272.542969 294.019531 259.621094 294.019531 L 233.9375 294.019531 C 221.015625 294.019531 210.585938 283.589844 210.585938 270.671875 Z M 534.058594 294.019531 L 336.984375 294.019531 C 324.066406 294.019531 313.636719 283.589844 313.636719 270.671875 C 313.636719 257.90625 324.066406 247.320312 336.984375 247.320312 L 534.058594 247.320312 C 546.976562 247.320312 557.40625 257.90625 557.40625 270.671875 C 557.40625 283.589844 546.976562 294.019531 534.058594 294.019531 Z M 534.058594 294.019531 " fill-opacity="1" fill-rule="nonzero"/></g><g clip-path="url(#3846d70d3a)"><path fill="#3b43f2" d="M 567.214844 403.609375 L 200.78125 403.609375 C 168.710938 403.609375 142.71875 429.761719 142.71875 461.671875 L 142.71875 532.808594 C 142.71875 564.875 168.710938 590.871094 200.78125 590.871094 L 567.214844 590.871094 C 599.28125 590.871094 625.277344 564.875 625.277344 532.808594 L 625.277344 461.671875 C 625.277344 429.761719 599.28125 403.609375 567.214844 403.609375 Z M 210.585938 497.316406 C 210.585938 484.398438 221.015625 473.96875 233.9375 473.96875 L 259.621094 473.96875 C 272.542969 473.96875 282.96875 484.398438 282.96875 497.316406 C 282.96875 510.082031 272.542969 520.667969 259.621094 520.667969 L 233.9375 520.667969 C 221.015625 520.667969 210.585938 510.082031 210.585938 497.316406 Z M 534.058594 520.667969 L 336.984375 520.667969 C 324.066406 520.667969 313.636719 510.082031 313.636719 497.316406 C 313.636719 484.398438 324.066406 473.96875 336.984375 473.96875 L 534.058594 473.96875 C 546.976562 473.96875 557.40625 484.398438 557.40625 497.316406 C 557.40625 510.082031 546.976562 520.667969 534.058594 520.667969 Z M 534.058594 520.667969 " fill-opacity="1" fill-rule="nonzero"/></g></svg>